{
	"patcher" : 	{
		"fileversion" : 1,
		"rect" : [ 28.0, 51.0, 724.0, 597.0 ],
		"bglocked" : 0,
		"defrect" : [ 28.0, 51.0, 724.0, 597.0 ],
		"openrect" : [ 0.0, 0.0, 0.0, 0.0 ],
		"openinpresentation" : 0,
		"default_fontsize" : 11.595187,
		"default_fontface" : 0,
		"default_fontname" : "Arial",
		"gridonopen" : 0,
		"gridsize" : [ 15.0, 15.0 ],
		"gridsnaponopen" : 0,
		"toolbarvisible" : 1,
		"boxanimatetime" : 200,
		"imprint" : 0,
		"metadata" : [  ],
		"boxes" : [ 			{
				"box" : 				{
					"maxclass" : "newobj",
					"text" : "autohelp",
					"hidden" : 1,
					"patching_rect" : [ 564.0, 521.0, 55.0, 20.0 ],
					"fontsize" : 11.595187,
					"numinlets" : 1,
					"numoutlets" : 0,
					"id" : "obj-4",
					"fontname" : "Arial"
				}

			}
, 			{
				"box" : 				{
					"maxclass" : "jit.fpsgui",
					"patching_rect" : [ 17.0, 552.0, 80.0, 34.666664 ],
					"fontsize" : 11.595187,
					"numinlets" : 1,
					"numoutlets" : 2,
					"id" : "obj-13",
					"fontname" : "Arial",
					"outlettype" : [ "", "" ]
				}

			}
, 			{
				"box" : 				{
					"maxclass" : "umenu",
					"types" : [  ],
					"patching_rect" : [ 358.0, 175.0, 60.0, 20.0 ],
					"fontsize" : 11.595187,
					"items" : [ "pass", ",", "*", ",", "/", ",", "+", ",", "\\-", ",", "+m", ",", "-m", ",", "%", ",", "min", ",", "max", ",", "abs", ",", "avg", ",", "absdiff", ",", "wrap", ",", "fold", ",", "!pass", ",", "!/", ",", "!-", ",", "!%", ",", "&", ",", "|", ",", "^", ",", "~", ",", ">>", ",", "<<", ",", "&&", ",", "||", ",", "!", ",", ">", ",", "<", ",", ">=", ",", "<=", ",", "==", ",", "!=", ",", ">p", ",", "<p", ",", ">=p", ",", "<=p", ",", "==p", ",", "!=p", ",", "sin", ",", "cos", ",", "tan", ",", "asin", ",", "acos", ",", "atan", ",", "atan2", ",", "sinh", ",", "cosh", ",", "tanh", ",", "asinh", ",", "acosh", ",", "atanh", ",", "exp", ",", "exp2", ",", "ln", ",", "log2", ",", "log10", ",", "hypot", ",", "pow", ",", "sqrt", ",", "ceil", ",", "floor", ",", "round", ",", "trunc", ",", "ignore" ],
					"numinlets" : 1,
					"numoutlets" : 3,
					"id" : "obj-14",
					"fontname" : "Arial",
					"outlettype" : [ "int", "", "" ]
				}

			}
, 			{
				"box" : 				{
					"maxclass" : "comment",
					"text" : "<- turn altivec optimization on/off (Mac only)",
					"patching_rect" : [ 424.0, 385.506012, 233.0, 20.0 ],
					"frgb" : [ 0.0, 0.0, 0.0, 1.0 ],
					"fontsize" : 11.595187,
					"numinlets" : 1,
					"numoutlets" : 0,
					"id" : "obj-15",
					"fontname" : "Arial"
				}

			}
, 			{
				"box" : 				{
					"maxclass" : "comment",
					"text" : "<- see floating point operators",
					"patching_rect" : [ 424.0, 361.469879, 183.0, 20.0 ],
					"frgb" : [ 0.0, 0.0, 0.0, 1.0 ],
					"fontsize" : 11.595187,
					"numinlets" : 1,
					"numoutlets" : 0,
					"id" : "obj-16",
					"fontname" : "Arial"
				}

			}
, 			{
				"box" : 				{
					"maxclass" : "newobj",
					"text" : "p altivec",
					"patching_rect" : [ 364.0, 382.072296, 53.0, 20.0 ],
					"fontsize" : 11.595187,
					"numinlets" : 0,
					"numoutlets" : 0,
					"id" : "obj-17",
					"fontname" : "Arial",
					"patcher" : 					{
						"fileversion" : 1,
						"rect" : [ 396.0, 56.0, 340.0, 159.0 ],
						"bgcolor" : [ 1.0, 1.0, 1.0, 1.0 ],
						"bglocked" : 0,
						"defrect" : [ 396.0, 56.0, 340.0, 159.0 ],
						"openrect" : [ 0.0, 0.0, 0.0, 0.0 ],
						"openinpresentation" : 0,
						"default_fontsize" : 10.0,
						"default_fontface" : 0,
						"default_fontname" : "Arial",
						"gridonopen" : 0,
						"gridsize" : [ 15.0, 15.0 ],
						"gridsnaponopen" : 0,
						"toolbarvisible" : 1,
						"boxanimatetime" : 200,
						"imprint" : 0,
						"metadata" : [  ],
						"boxes" : [ 							{
								"box" : 								{
									"maxclass" : "newobj",
									"text" : "bgcolor 1. 1. 1.",
									"hidden" : 1,
									"patching_rect" : [ 107.0, 92.0, 87.0, 20.0 ],
									"fontsize" : 11.595187,
									"numinlets" : 4,
									"numoutlets" : 0,
									"id" : "obj-1",
									"fontname" : "Arial"
								}

							}
, 							{
								"box" : 								{
									"maxclass" : "comment",
									"text" : "if you have a G4 or G5, you can see the performance difference with altivec enabled/disabled (not all operators/types are altivec optimized)",
									"linecount" : 4,
									"patching_rect" : [ 116.0, 25.0, 201.0, 60.0 ],
									"frgb" : [ 0.0, 0.0, 0.0, 1.0 ],
									"fontsize" : 11.595187,
									"numinlets" : 1,
									"numoutlets" : 0,
									"id" : "obj-2",
									"fontname" : "Arial"
								}

							}
, 							{
								"box" : 								{
									"maxclass" : "toggle",
									"patching_rect" : [ 39.0, 33.0, 20.0, 20.0 ],
									"numinlets" : 1,
									"numoutlets" : 1,
									"id" : "obj-3",
									"outlettype" : [ "int" ]
								}

							}
, 							{
								"box" : 								{
									"maxclass" : "message",
									"text" : ";\rjit altivec $1",
									"linecount" : 2,
									"patching_rect" : [ 39.0, 57.0, 73.0, 31.0 ],
									"fontsize" : 11.595187,
									"numinlets" : 2,
									"numoutlets" : 1,
									"id" : "obj-4",
									"fontname" : "Arial",
									"outlettype" : [ "" ]
								}

							}
 ],
						"lines" : [ 							{
								"patchline" : 								{
									"source" : [ "obj-3", 0 ],
									"destination" : [ "obj-4", 0 ],
									"hidden" : 0,
									"midpoints" : [  ]
								}

							}
 ]
					}
,
					"saved_object_attributes" : 					{
						"default_fontface" : 0,
						"globalpatchername" : "",
						"fontface" : 0,
						"default_fontname" : "Arial",
						"fontsize" : 10.0,
						"default_fontsize" : 10.0,
						"fontname" : "Arial"
					}

				}

			}
, 			{
				"box" : 				{
					"maxclass" : "message",
					"text" : "stop",
					"patching_rect" : [ 344.703339, 124.786163, 30.0, 18.0 ],
					"fontsize" : 11.595187,
					"numinlets" : 2,
					"numoutlets" : 1,
					"id" : "obj-18",
					"fontname" : "Arial",
					"outlettype" : [ "" ]
				}

			}
, 			{
				"box" : 				{
					"maxclass" : "message",
					"text" : "stop",
					"patching_rect" : [ 132.907928, 124.786163, 30.0, 18.0 ],
					"fontsize" : 11.595187,
					"numinlets" : 2,
					"numoutlets" : 1,
					"id" : "obj-19",
					"fontname" : "Arial",
					"outlettype" : [ "" ]
				}

			}
, 			{
				"box" : 				{
					"maxclass" : "comment",
					"text" : "read the op_list below for descriptions of each operator. Some operators are only valid for certain types.",
					"linecount" : 2,
					"patching_rect" : [ 364.0, 301.0, 297.0, 33.0 ],
					"frgb" : [ 0.0, 0.0, 0.0, 1.0 ],
					"fontsize" : 11.595187,
					"numinlets" : 1,
					"numoutlets" : 0,
					"id" : "obj-20",
					"fontname" : "Arial"
				}

			}
, 			{
				"box" : 				{
					"maxclass" : "newobj",
					"text" : "p op_list",
					"patching_rect" : [ 364.0, 334.0, 54.0, 20.0 ],
					"fontsize" : 11.595187,
					"numinlets" : 0,
					"numoutlets" : 0,
					"id" : "obj-21",
					"fontname" : "Arial",
					"patcher" : 					{
						"fileversion" : 1,
						"rect" : [ 142.0, 55.0, 461.0, 645.0 ],
						"bglocked" : 0,
						"defrect" : [ 142.0, 55.0, 461.0, 645.0 ],
						"openrect" : [ 0.0, 0.0, 0.0, 0.0 ],
						"openinpresentation" : 0,
						"default_fontsize" : 10.0,
						"default_fontface" : 0,
						"default_fontname" : "Arial",
						"gridonopen" : 0,
						"gridsize" : [ 15.0, 15.0 ],
						"gridsnaponopen" : 0,
						"toolbarvisible" : 1,
						"boxanimatetime" : 200,
						"imprint" : 0,
						"metadata" : [  ],
						"boxes" : [ 							{
								"box" : 								{
									"maxclass" : "comment",
									"text" : ">p: greater than(pass);\r<p: less than(pass);\r>=p: greater than or equal to(pass);\r<=p: less than or equal to(pass);\r==p: equal(pass);\r!=p not equal(pass)",
									"linecount" : 6,
									"patching_rect" : [ 250.0, 283.0, 194.0, 86.0 ],
									"frgb" : [ 0.0, 0.0, 0.0, 1.0 ],
									"fontsize" : 11.595187,
									"numinlets" : 1,
									"numoutlets" : 0,
									"id" : "obj-2",
									"fontname" : "Arial"
								}

							}
, 							{
								"box" : 								{
									"maxclass" : "comment",
									"text" : "(long/char only)",
									"patching_rect" : [ 250.0, 40.0, 146.0, 20.0 ],
									"frgb" : [ 0.0, 0.0, 0.0, 1.0 ],
									"fontsize" : 11.595187,
									"numinlets" : 1,
									"numoutlets" : 0,
									"id" : "obj-3",
									"fontname" : "Arial"
								}

							}
, 							{
								"box" : 								{
									"maxclass" : "comment",
									"text" : "(float32/float64 only, unary unless otherwise mentioned)",
									"linecount" : 2,
									"patching_rect" : [ 250.0, 387.0, 156.0, 33.0 ],
									"frgb" : [ 0.0, 0.0, 0.0, 1.0 ],
									"fontsize" : 11.595187,
									"numinlets" : 1,
									"numoutlets" : 0,
									"id" : "obj-4",
									"fontname" : "Arial"
								}

							}
, 							{
								"box" : 								{
									"maxclass" : "comment",
									"text" : "exp/log/rounding",
									"patching_rect" : [ 250.0, 370.0, 163.0, 20.0 ],
									"fontface" : 1,
									"frgb" : [ 0.0, 0.0, 0.0, 1.0 ],
									"fontsize" : 11.595187,
									"numinlets" : 1,
									"numoutlets" : 0,
									"id" : "obj-5",
									"fontname" : "Arial"
								}

							}
, 							{
								"box" : 								{
									"maxclass" : "comment",
									"text" : "(float32/float64 only, unary unless otherwise mentioned)",
									"linecount" : 2,
									"patching_rect" : [ 17.0, 351.0, 156.0, 33.0 ],
									"frgb" : [ 0.0, 0.0, 0.0, 1.0 ],
									"fontsize" : 11.595187,
									"numinlets" : 1,
									"numoutlets" : 0,
									"id" : "obj-6",
									"fontname" : "Arial"
								}

							}
, 							{
								"box" : 								{
									"maxclass" : "comment",
									"text" : "sin: sine;\rcos: cosine;\rtan: tangent;\rasin: arcsine;\racos: arccosine;\ratan: arctangent;\ratan2: arctangent(binary);\rsinh: hyperbolic sine;\rcosh: hyperbolic cosine;\rtanh: hyperbolic tangent;\rasinh: hyperbolic arcsine;\racosh: hyperbolic arccosine;\ratanh: hyperbolic arctangent;\r",
									"linecount" : 13,
									"patching_rect" : [ 17.0, 385.0, 170.0, 180.0 ],
									"frgb" : [ 0.0, 0.0, 0.0, 1.0 ],
									"fontsize" : 11.595187,
									"numinlets" : 1,
									"numoutlets" : 0,
									"id" : "obj-7",
									"fontname" : "Arial"
								}

							}
, 							{
								"box" : 								{
									"maxclass" : "comment",
									"text" : "&&: logical and;\r||: logical or;\r!: logical not(unary);\r>: greater than;\r<: less than;\r>=: greater than or equal to;\r<=: less than or equal to;\r==: equal;\r!=: not equal",
									"linecount" : 9,
									"patching_rect" : [ 250.0, 160.0, 164.0, 126.0 ],
									"frgb" : [ 0.0, 0.0, 0.0, 1.0 ],
									"fontsize" : 11.595187,
									"numinlets" : 1,
									"numoutlets" : 0,
									"id" : "obj-8",
									"fontname" : "Arial"
								}

							}
, 							{
								"box" : 								{
									"maxclass" : "comment",
									"text" : "logical",
									"patching_rect" : [ 250.0, 141.0, 110.0, 20.0 ],
									"fontface" : 1,
									"frgb" : [ 0.0, 0.0, 0.0, 1.0 ],
									"fontsize" : 11.595187,
									"numinlets" : 1,
									"numoutlets" : 0,
									"id" : "obj-9",
									"fontname" : "Arial"
								}

							}
, 							{
								"box" : 								{
									"maxclass" : "comment",
									"text" : "exp: e to the x;\rexp2: 2 to the x;\rln: log base e;\rlog2: log base 2;\rlog10: log base 10;\rhypot: hypotenuse(binary);\rpow: x to the y(binary);\rsqrt: square root;\rceil: integer ceiling;\rfloor: integer floor;\rround: round to nearest integer;\rtrunc: truncate to integer",
									"linecount" : 12,
									"patching_rect" : [ 250.0, 417.0, 174.0, 166.0 ],
									"frgb" : [ 0.0, 0.0, 0.0, 1.0 ],
									"fontsize" : 11.595187,
									"numinlets" : 1,
									"numoutlets" : 0,
									"id" : "obj-10",
									"fontname" : "Arial"
								}

							}
, 							{
								"box" : 								{
									"maxclass" : "comment",
									"text" : "bitwise",
									"patching_rect" : [ 250.0, 19.0, 146.0, 20.0 ],
									"fontface" : 1,
									"frgb" : [ 0.0, 0.0, 0.0, 1.0 ],
									"fontsize" : 11.595187,
									"numinlets" : 1,
									"numoutlets" : 0,
									"id" : "obj-11",
									"fontname" : "Arial"
								}

							}
, 							{
								"box" : 								{
									"maxclass" : "comment",
									"text" : "&: bitwise and;\r|: bitwise or;\r^: bitwise xor;\r~: bitwise compliment(unary);\r>>: right shift;\r<<: left shift",
									"linecount" : 6,
									"patching_rect" : [ 250.0, 57.0, 163.0, 86.0 ],
									"frgb" : [ 0.0, 0.0, 0.0, 1.0 ],
									"fontsize" : 11.595187,
									"numinlets" : 1,
									"numoutlets" : 0,
									"id" : "obj-12",
									"fontname" : "Arial"
								}

							}
, 							{
								"box" : 								{
									"maxclass" : "comment",
									"text" : "pass: pass left input, no operator;\r*: multiplication;\r/: division;\r+: addition;\r-: subtraction;\r+m: addition modulo(char only);\r-m: subtraction modulo(char only);\r%: modulo;\rmin: minimum;\rmax: maximum;\rabs: absolute value(unary);\ravg: average;\rabsdiff: absolute value of difference;\r!pass: pass right input, no operator;\r!/: right input/left input(filpped);\r!-: right input-left input(filpped);\r!%:right input/left input(filpped);\rignore: leave previous output value;\rfold: mirrored modulo (float32/float64 only);\rwrap: positive modulo (float32/float64 only);\r",
									"linecount" : 20,
									"patching_rect" : [ 17.0, 45.0, 235.0, 273.0 ],
									"frgb" : [ 0.0, 0.0, 0.0, 1.0 ],
									"fontsize" : 11.595187,
									"numinlets" : 1,
									"numoutlets" : 0,
									"id" : "obj-13",
									"fontname" : "Arial"
								}

							}
, 							{
								"box" : 								{
									"maxclass" : "comment",
									"text" : "arithmetic",
									"patching_rect" : [ 17.0, 19.0, 109.0, 20.0 ],
									"fontface" : 1,
									"frgb" : [ 0.0, 0.0, 0.0, 1.0 ],
									"fontsize" : 11.595187,
									"numinlets" : 1,
									"numoutlets" : 0,
									"id" : "obj-14",
									"fontname" : "Arial"
								}

							}
, 							{
								"box" : 								{
									"maxclass" : "comment",
									"text" : "trigonometric",
									"patching_rect" : [ 17.0, 328.0, 162.0, 20.0 ],
									"fontface" : 1,
									"frgb" : [ 0.0, 0.0, 0.0, 1.0 ],
									"fontsize" : 11.595187,
									"numinlets" : 1,
									"numoutlets" : 0,
									"id" : "obj-15",
									"fontname" : "Arial"
								}

							}
 ],
						"lines" : [  ]
					}
,
					"saved_object_attributes" : 					{
						"default_fontface" : 0,
						"globalpatchername" : "",
						"fontface" : 0,
						"default_fontname" : "Arial",
						"fontsize" : 10.0,
						"default_fontsize" : 10.0,
						"fontname" : "Arial"
					}

				}

			}
, 			{
				"box" : 				{
					"maxclass" : "comment",
					"text" : "unary + binary operators (more than fifty of them).",
					"patching_rect" : [ 364.0, 281.0, 264.0, 20.0 ],
					"frgb" : [ 0.0, 0.0, 0.0, 1.0 ],
					"fontsize" : 11.595187,
					"numinlets" : 1,
					"numoutlets" : 0,
					"id" : "obj-22",
					"fontname" : "Arial"
				}

			}
, 			{
				"box" : 				{
					"maxclass" : "message",
					"text" : "getop",
					"patching_rect" : [ 542.711548, 200.804871, 38.0, 18.0 ],
					"fontsize" : 11.595187,
					"numinlets" : 2,
					"numoutlets" : 1,
					"id" : "obj-23",
					"fontname" : "Arial",
					"outlettype" : [ "" ]
				}

			}
, 			{
				"box" : 				{
					"maxclass" : "newobj",
					"text" : "p multi_op",
					"patching_rect" : [ 473.173065, 198.560974, 62.0, 20.0 ],
					"fontsize" : 11.595187,
					"numinlets" : 0,
					"numoutlets" : 1,
					"id" : "obj-24",
					"fontname" : "Arial",
					"outlettype" : [ "" ],
					"patcher" : 					{
						"fileversion" : 1,
						"rect" : [ 564.0, 112.0, 417.0, 237.0 ],
						"bglocked" : 0,
						"defrect" : [ 564.0, 112.0, 417.0, 237.0 ],
						"openrect" : [ 0.0, 0.0, 0.0, 0.0 ],
						"openinpresentation" : 0,
						"default_fontsize" : 10.0,
						"default_fontface" : 0,
						"default_fontname" : "Arial",
						"gridonopen" : 0,
						"gridsize" : [ 15.0, 15.0 ],
						"gridsnaponopen" : 0,
						"toolbarvisible" : 1,
						"boxanimatetime" : 200,
						"imprint" : 0,
						"metadata" : [  ],
						"boxes" : [ 							{
								"box" : 								{
									"maxclass" : "newobj",
									"text" : "prepend op",
									"patching_rect" : [ 55.5, 115.0, 69.0, 20.0 ],
									"fontsize" : 11.595187,
									"numinlets" : 1,
									"numoutlets" : 1,
									"id" : "obj-1",
									"fontname" : "Arial",
									"outlettype" : [ "" ]
								}

							}
, 							{
								"box" : 								{
									"maxclass" : "umenu",
									"types" : [  ],
									"patching_rect" : [ 240.714279, 61.0, 60.0, 20.0 ],
									"fontsize" : 11.595187,
									"items" : [ "pass", ",", "*", ",", "/", ",", "+", ",", "-", ",", "+m", ",", "-m", ",", "%", ",", "min", ",", "max", ",", "abs", ",", "avg", ",", "absdiff", ",", "!pass", ",", "!/", ",", "!-", ",", "!%", ",", "&", ",", "|", ",", "^", ",", "~", ",", ">>", ",", "<<", ",", "&&", ",", "||", ",", "!", ",", ">", ",", "<", ",", ">=", ",", "<=", ",", "==", ",", "!=", ",", ">p", ",", "<p", ",", ">=p", ",", "<=p", ",", "==p", ",", "!=p", ",", "sin", ",", "cos", ",", "tan", ",", "asin", ",", "acos", ",", "atan", ",", "atan2", ",", "sinh", ",", "cosh", ",", "tanh", ",", "asinh", ",", "acosh", ",", "atanh", ",", "exp", ",", "exp2", ",", "ln", ",", "log2", ",", "log10", ",", "hypot", ",", "pow", ",", "sqrt", ",", "ceil", ",", "floor", ",", "round", ",", "trunc", ",", "ignore" ],
									"numinlets" : 1,
									"numoutlets" : 3,
									"id" : "obj-2",
									"fontname" : "Arial",
									"outlettype" : [ "int", "", "" ]
								}

							}
, 							{
								"box" : 								{
									"maxclass" : "umenu",
									"types" : [  ],
									"patching_rect" : [ 172.142853, 61.0, 60.0, 20.0 ],
									"fontsize" : 11.595187,
									"items" : [ "pass", ",", "*", ",", "/", ",", "+", ",", "-", ",", "+m", ",", "-m", ",", "%", ",", "min", ",", "max", ",", "abs", ",", "avg", ",", "absdiff", ",", "!pass", ",", "!/", ",", "!-", ",", "!%", ",", "&", ",", "|", ",", "^", ",", "~", ",", ">>", ",", "<<", ",", "&&", ",", "||", ",", "!", ",", ">", ",", "<", ",", ">=", ",", "<=", ",", "==", ",", "!=", ",", ">p", ",", "<p", ",", ">=p", ",", "<=p", ",", "==p", ",", "!=p", ",", "sin", ",", "cos", ",", "tan", ",", "asin", ",", "acos", ",", "atan", ",", "atan2", ",", "sinh", ",", "cosh", ",", "tanh", ",", "asinh", ",", "acosh", ",", "atanh", ",", "exp", ",", "exp2", ",", "ln", ",", "log2", ",", "log10", ",", "hypot", ",", "pow", ",", "sqrt", ",", "ceil", ",", "floor", ",", "round", ",", "trunc", ",", "ignore" ],
									"numinlets" : 1,
									"numoutlets" : 3,
									"id" : "obj-3",
									"fontname" : "Arial",
									"outlettype" : [ "int", "", "" ]
								}

							}
, 							{
								"box" : 								{
									"maxclass" : "outlet",
									"patching_rect" : [ 55.5, 139.0, 25.0, 25.0 ],
									"numinlets" : 1,
									"numoutlets" : 0,
									"id" : "obj-4",
									"comment" : ""
								}

							}
, 							{
								"box" : 								{
									"maxclass" : "umenu",
									"types" : [  ],
									"patching_rect" : [ 103.571426, 61.0, 60.0, 20.0 ],
									"fontsize" : 11.595187,
									"items" : [ "pass", ",", "*", ",", "/", ",", "+", ",", "-", ",", "+m", ",", "-m", ",", "%", ",", "min", ",", "max", ",", "abs", ",", "avg", ",", "absdiff", ",", "!pass", ",", "!/", ",", "!-", ",", "!%", ",", "&", ",", "|", ",", "^", ",", "~", ",", ">>", ",", "<<", ",", "&&", ",", "||", ",", "!", ",", ">", ",", "<", ",", ">=", ",", "<=", ",", "==", ",", "!=", ",", ">p", ",", "<p", ",", ">=p", ",", "<=p", ",", "==p", ",", "!=p", ",", "sin", ",", "cos", ",", "tan", ",", "asin", ",", "acos", ",", "atan", ",", "atan2", ",", "sinh", ",", "cosh", ",", "tanh", ",", "asinh", ",", "acosh", ",", "atanh", ",", "exp", ",", "exp2", ",", "ln", ",", "log2", ",", "log10", ",", "hypot", ",", "pow", ",", "sqrt", ",", "ceil", ",", "floor", ",", "round", ",", "trunc", ",", "ignore" ],
									"numinlets" : 1,
									"numoutlets" : 3,
									"id" : "obj-5",
									"fontname" : "Arial",
									"outlettype" : [ "int", "", "" ]
								}

							}
, 							{
								"box" : 								{
									"maxclass" : "umenu",
									"types" : [  ],
									"patching_rect" : [ 35.0, 61.0, 60.0, 20.0 ],
									"fontsize" : 11.595187,
									"items" : [ "pass", ",", "*", ",", "/", ",", "+", ",", "-", ",", "+m", ",", "-m", ",", "%", ",", "min", ",", "max", ",", "abs", ",", "avg", ",", "absdiff", ",", "!pass", ",", "!/", ",", "!-", ",", "!%", ",", "&", ",", "|", ",", "^", ",", "~", ",", ">>", ",", "<<", ",", "&&", ",", "||", ",", "!", ",", ">", ",", "<", ",", ">=", ",", "<=", ",", "==", ",", "!=", ",", ">p", ",", "<p", ",", ">=p", ",", "<=p", ",", "==p", ",", "!=p", ",", "sin", ",", "cos", ",", "tan", ",", "asin", ",", "acos", ",", "atan", ",", "atan2", ",", "sinh", ",", "cosh", ",", "tanh", ",", "asinh", ",", "acosh", ",", "atanh", ",", "exp", ",", "exp2", ",", "ln", ",", "log2", ",", "log10", ",", "hypot", ",", "pow", ",", "sqrt", ",", "ceil", ",", "floor", ",", "round", ",", "trunc", ",", "ignore" ],
									"numinlets" : 1,
									"numoutlets" : 3,
									"id" : "obj-6",
									"fontname" : "Arial",
									"outlettype" : [ "int", "", "" ]
								}

							}
, 							{
								"box" : 								{
									"maxclass" : "newobj",
									"text" : "pak * * * *",
									"patching_rect" : [ 55.5, 89.800003, 224.0, 20.0 ],
									"fontsize" : 11.595187,
									"numinlets" : 4,
									"numoutlets" : 1,
									"id" : "obj-7",
									"fontname" : "Arial",
									"outlettype" : [ "" ]
								}

							}
 ],
						"lines" : [ 							{
								"patchline" : 								{
									"source" : [ "obj-2", 1 ],
									"destination" : [ "obj-7", 3 ],
									"hidden" : 0,
									"midpoints" : [  ]
								}

							}
, 							{
								"patchline" : 								{
									"source" : [ "obj-3", 1 ],
									"destination" : [ "obj-7", 2 ],
									"hidden" : 0,
									"midpoints" : [  ]
								}

							}
, 							{
								"patchline" : 								{
									"source" : [ "obj-5", 1 ],
									"destination" : [ "obj-7", 1 ],
									"hidden" : 0,
									"midpoints" : [  ]
								}

							}
, 							{
								"patchline" : 								{
									"source" : [ "obj-1", 0 ],
									"destination" : [ "obj-4", 0 ],
									"hidden" : 0,
									"midpoints" : [  ]
								}

							}
, 							{
								"patchline" : 								{
									"source" : [ "obj-7", 0 ],
									"destination" : [ "obj-1", 0 ],
									"hidden" : 0,
									"midpoints" : [  ]
								}

							}
, 							{
								"patchline" : 								{
									"source" : [ "obj-6", 1 ],
									"destination" : [ "obj-7", 0 ],
									"hidden" : 0,
									"midpoints" : [  ]
								}

							}
 ]
					}
,
					"saved_object_attributes" : 					{
						"default_fontface" : 0,
						"globalpatchername" : "",
						"fontface" : 0,
						"default_fontname" : "Arial",
						"fontsize" : 10.0,
						"default_fontsize" : 10.0,
						"fontname" : "Arial"
					}

				}

			}
, 			{
				"box" : 				{
					"maxclass" : "newobj",
					"text" : "p float",
					"patching_rect" : [ 364.0, 358.036133, 42.0, 20.0 ],
					"fontsize" : 11.595187,
					"numinlets" : 0,
					"numoutlets" : 0,
					"id" : "obj-25",
					"fontname" : "Arial",
					"patcher" : 					{
						"fileversion" : 1,
						"rect" : [ 40.0, 55.0, 358.0, 264.0 ],
						"bglocked" : 0,
						"defrect" : [ 40.0, 55.0, 358.0, 264.0 ],
						"openrect" : [ 0.0, 0.0, 0.0, 0.0 ],
						"openinpresentation" : 0,
						"default_fontsize" : 10.0,
						"default_fontface" : 0,
						"default_fontname" : "Arial",
						"gridonopen" : 0,
						"gridsize" : [ 15.0, 15.0 ],
						"gridsnaponopen" : 0,
						"toolbarvisible" : 1,
						"boxanimatetime" : 200,
						"imprint" : 0,
						"metadata" : [  ],
						"boxes" : [ 							{
								"box" : 								{
									"maxclass" : "umenu",
									"types" : [  ],
									"patching_rect" : [ 227.152023, 39.070175, 60.0, 20.0 ],
									"fontsize" : 11.595187,
									"items" : [ "pass", ",", "*", ",", "/", ",", "+", ",", "-", ",", "+m", ",", "-m", ",", "%", ",", "min", ",", "max", ",", "abs", ",", "avg", ",", "absdiff", ",", "fold", ",", "wrap", ",", "!pass", ",", "!/", ",", "!-", ",", "!%", ",", "&", ",", "|", ",", "^", ",", "~", ",", ">>", ",", "<<", ",", "&&", ",", "||", ",", "!", ",", ">", ",", "<", ",", ">=", ",", "<=", ",", "==", ",", "!=", ",", ">p", ",", "<p", ",", ">=p", ",", "<=p", ",", "==p", ",", "!=p", ",", "sin", ",", "cos", ",", "tan", ",", "asin", ",", "acos", ",", "atan", ",", "atan2", ",", "sinh", ",", "cosh", ",", "tanh", ",", "asinh", ",", "acosh", ",", "atanh", ",", "exp", ",", "exp2", ",", "ln", ",", "log2", ",", "log10", ",", "hypot", ",", "pow", ",", "sqrt", ",", "ceil", ",", "floor", ",", "round", ",", "trunc", ",", "ignore" ],
									"numinlets" : 1,
									"numoutlets" : 3,
									"id" : "obj-2",
									"fontname" : "Arial",
									"outlettype" : [ "int", "", "" ]
								}

							}
, 							{
								"box" : 								{
									"maxclass" : "newobj",
									"text" : "t b l",
									"patching_rect" : [ 247.652023, 90.649124, 32.5, 20.0 ],
									"fontsize" : 11.595187,
									"numinlets" : 1,
									"numoutlets" : 2,
									"id" : "obj-3",
									"fontname" : "Arial",
									"outlettype" : [ "bang", "" ]
								}

							}
, 							{
								"box" : 								{
									"maxclass" : "newobj",
									"text" : "t b",
									"patching_rect" : [ 24.18581, 53.97076, 21.0, 20.0 ],
									"fontsize" : 11.595187,
									"numinlets" : 1,
									"numoutlets" : 1,
									"id" : "obj-4",
									"fontname" : "Arial",
									"outlettype" : [ "bang" ]
								}

							}
, 							{
								"box" : 								{
									"maxclass" : "newobj",
									"text" : "prepend op",
									"patching_rect" : [ 247.652023, 65.432747, 69.0, 20.0 ],
									"fontsize" : 11.595187,
									"numinlets" : 1,
									"numoutlets" : 1,
									"id" : "obj-5",
									"fontname" : "Arial",
									"outlettype" : [ "" ]
								}

							}
, 							{
								"box" : 								{
									"maxclass" : "flonum",
									"patching_rect" : [ 10.0, 188.076019, 50.0, 20.0 ],
									"fontsize" : 11.595187,
									"numinlets" : 1,
									"numoutlets" : 2,
									"id" : "obj-6",
									"fontname" : "Arial",
									"outlettype" : [ "float", "bang" ],
									"triscale" : 0.9
								}

							}
, 							{
								"box" : 								{
									"maxclass" : "newobj",
									"text" : "jit.iter",
									"patching_rect" : [ 10.0, 160.567245, 46.0, 20.0 ],
									"fontsize" : 11.595187,
									"numinlets" : 1,
									"numoutlets" : 3,
									"id" : "obj-7",
									"fontname" : "Arial",
									"outlettype" : [ "", "", "" ]
								}

							}
, 							{
								"box" : 								{
									"maxclass" : "newobj",
									"text" : "jit.matrix 1 float64 1 @thru 1",
									"linecount" : 2,
									"patching_rect" : [ 10.0, 88.356728, 98.0, 33.0 ],
									"fontsize" : 11.595187,
									"numinlets" : 1,
									"numoutlets" : 2,
									"id" : "obj-8",
									"fontname" : "Arial",
									"outlettype" : [ "jit_matrix", "" ]
								}

							}
, 							{
								"box" : 								{
									"maxclass" : "flonum",
									"patching_rect" : [ 10.0, 15.0, 50.0, 20.0 ],
									"fontsize" : 11.595187,
									"numinlets" : 1,
									"numoutlets" : 2,
									"id" : "obj-9",
									"fontname" : "Arial",
									"outlettype" : [ "float", "bang" ],
									"triscale" : 0.9
								}

							}
, 							{
								"box" : 								{
									"maxclass" : "flonum",
									"patching_rect" : [ 119.0, 15.0, 50.0, 20.0 ],
									"fontsize" : 11.595187,
									"numinlets" : 1,
									"numoutlets" : 2,
									"id" : "obj-10",
									"fontname" : "Arial",
									"outlettype" : [ "float", "bang" ],
									"triscale" : 0.9
								}

							}
, 							{
								"box" : 								{
									"maxclass" : "newobj",
									"text" : "jit.op 1 float64 1 @op *",
									"patching_rect" : [ 10.0, 128.473679, 128.0, 20.0 ],
									"fontsize" : 11.595187,
									"numinlets" : 2,
									"numoutlets" : 2,
									"id" : "obj-11",
									"fontname" : "Arial",
									"outlettype" : [ "jit_matrix", "" ]
								}

							}
, 							{
								"box" : 								{
									"maxclass" : "comment",
									"text" : "example of how you can use jit.op to perform double precision floating point calculations on scalars",
									"linecount" : 3,
									"patching_rect" : [ 126.0, 178.0, 193.0, 46.0 ],
									"frgb" : [ 0.0, 0.0, 0.0, 1.0 ],
									"fontsize" : 11.595187,
									"numinlets" : 1,
									"numoutlets" : 0,
									"id" : "obj-12",
									"fontname" : "Arial"
								}

							}
 ],
						"lines" : [ 							{
								"patchline" : 								{
									"source" : [ "obj-5", 0 ],
									"destination" : [ "obj-3", 0 ],
									"hidden" : 0,
									"midpoints" : [  ]
								}

							}
, 							{
								"patchline" : 								{
									"source" : [ "obj-2", 1 ],
									"destination" : [ "obj-5", 0 ],
									"hidden" : 0,
									"midpoints" : [  ]
								}

							}
, 							{
								"patchline" : 								{
									"source" : [ "obj-10", 0 ],
									"destination" : [ "obj-11", 1 ],
									"hidden" : 0,
									"midpoints" : [  ]
								}

							}
, 							{
								"patchline" : 								{
									"source" : [ "obj-10", 0 ],
									"destination" : [ "obj-4", 0 ],
									"hidden" : 0,
									"midpoints" : [ 128.5, 42.508774, 33.68581, 42.508774 ]
								}

							}
, 							{
								"patchline" : 								{
									"source" : [ "obj-7", 0 ],
									"destination" : [ "obj-6", 0 ],
									"hidden" : 0,
									"midpoints" : [  ]
								}

							}
, 							{
								"patchline" : 								{
									"source" : [ "obj-11", 0 ],
									"destination" : [ "obj-7", 0 ],
									"hidden" : 0,
									"midpoints" : [  ]
								}

							}
, 							{
								"patchline" : 								{
									"source" : [ "obj-3", 1 ],
									"destination" : [ "obj-11", 0 ],
									"hidden" : 0,
									"midpoints" : [ 270.652039, 125.035088, 19.5, 125.035088 ]
								}

							}
, 							{
								"patchline" : 								{
									"source" : [ "obj-8", 0 ],
									"destination" : [ "obj-11", 0 ],
									"hidden" : 0,
									"midpoints" : [  ]
								}

							}
, 							{
								"patchline" : 								{
									"source" : [ "obj-9", 0 ],
									"destination" : [ "obj-8", 0 ],
									"hidden" : 0,
									"midpoints" : [  ]
								}

							}
, 							{
								"patchline" : 								{
									"source" : [ "obj-4", 0 ],
									"destination" : [ "obj-8", 0 ],
									"hidden" : 0,
									"midpoints" : [ 33.68581, 80.333336, 19.5, 80.333336 ]
								}

							}
, 							{
								"patchline" : 								{
									"source" : [ "obj-3", 0 ],
									"destination" : [ "obj-8", 0 ],
									"hidden" : 0,
									"midpoints" : [ 257.152039, 117.011696, 145.310806, 117.011696, 145.310806, 83.771927, 19.5, 83.771927 ]
								}

							}
 ]
					}
,
					"saved_object_attributes" : 					{
						"default_fontface" : 0,
						"globalpatchername" : "",
						"fontface" : 0,
						"default_fontname" : "Arial",
						"fontsize" : 10.0,
						"default_fontsize" : 10.0,
						"fontname" : "Arial"
					}

				}

			}
, 			{
				"box" : 				{
					"maxclass" : "number",
					"patching_rect" : [ 136.0, 200.0, 50.0, 20.0 ],
					"fontsize" : 11.595187,
					"numinlets" : 1,
					"numoutlets" : 2,
					"id" : "obj-26",
					"fontname" : "Arial",
					"outlettype" : [ "int", "bang" ],
					"triscale" : 0.9
				}

			}
, 			{
				"box" : 				{
					"maxclass" : "flonum",
					"patching_rect" : [ 189.0, 200.0, 50.0, 20.0 ],
					"fontsize" : 11.595187,
					"numinlets" : 1,
					"numoutlets" : 2,
					"id" : "obj-27",
					"fontname" : "Arial",
					"outlettype" : [ "float", "bang" ],
					"triscale" : 0.9
				}

			}
, 			{
				"box" : 				{
					"maxclass" : "newobj",
					"text" : "prepend op",
					"patching_rect" : [ 378.5, 198.560974, 72.0, 20.0 ],
					"fontsize" : 11.595187,
					"numinlets" : 1,
					"numoutlets" : 1,
					"id" : "obj-28",
					"fontname" : "Arial",
					"outlettype" : [ "" ]
				}

			}
, 			{
				"box" : 				{
					"maxclass" : "toggle",
					"patching_rect" : [ 227.741684, 108.320755, 20.0, 20.0 ],
					"numinlets" : 1,
					"numoutlets" : 1,
					"id" : "obj-29",
					"outlettype" : [ "int" ]
				}

			}
, 			{
				"box" : 				{
					"maxclass" : "newobj",
					"text" : "gate",
					"patching_rect" : [ 227.741684, 131.842758, 31.0, 20.0 ],
					"fontsize" : 11.595187,
					"numinlets" : 2,
					"numoutlets" : 1,
					"id" : "obj-30",
					"fontname" : "Arial",
					"outlettype" : [ "" ]
				}

			}
, 			{
				"box" : 				{
					"maxclass" : "newobj",
					"text" : "print",
					"patching_rect" : [ 118.0, 257.0, 33.0, 20.0 ],
					"fontsize" : 11.595187,
					"numinlets" : 1,
					"numoutlets" : 0,
					"id" : "obj-31",
					"fontname" : "Arial"
				}

			}
, 			{
				"box" : 				{
					"maxclass" : "newobj",
					"text" : "jit.op @op * @val 0.5",
					"patching_rect" : [ 17.0, 234.0, 120.0, 20.0 ],
					"fontsize" : 11.595187,
					"numinlets" : 2,
					"numoutlets" : 2,
					"id" : "obj-32",
					"fontname" : "Arial",
					"outlettype" : [ "jit_matrix", "" ]
				}

			}
, 			{
				"box" : 				{
					"maxclass" : "flonum",
					"patching_rect" : [ 376.314575, 100.088051, 50.0, 20.0 ],
					"fontsize" : 11.595187,
					"numinlets" : 1,
					"numoutlets" : 2,
					"id" : "obj-33",
					"fontname" : "Arial",
					"outlettype" : [ "float", "bang" ],
					"triscale" : 0.9
				}

			}
, 			{
				"box" : 				{
					"maxclass" : "message",
					"text" : "rate $1",
					"patching_rect" : [ 376.314575, 124.786163, 45.0, 18.0 ],
					"fontsize" : 11.595187,
					"numinlets" : 2,
					"numoutlets" : 1,
					"id" : "obj-34",
					"fontname" : "Arial",
					"outlettype" : [ "" ]
				}

			}
, 			{
				"box" : 				{
					"maxclass" : "message",
					"text" : "read",
					"patching_rect" : [ 309.930939, 124.786163, 32.0, 18.0 ],
					"fontsize" : 11.595187,
					"numinlets" : 2,
					"numoutlets" : 1,
					"id" : "obj-35",
					"fontname" : "Arial",
					"outlettype" : [ "" ]
				}

			}
, 			{
				"box" : 				{
					"maxclass" : "newobj",
					"text" : "jit.qt.movie 320 240",
					"patching_rect" : [ 227.741684, 169.477982, 109.0, 20.0 ],
					"fontsize" : 11.595187,
					"numinlets" : 1,
					"numoutlets" : 2,
					"id" : "obj-36",
					"fontname" : "Arial",
					"outlettype" : [ "jit_matrix", "" ]
				}

			}
, 			{
				"box" : 				{
					"maxclass" : "flonum",
					"patching_rect" : [ 165.572891, 100.088051, 50.0, 20.0 ],
					"fontsize" : 11.595187,
					"numinlets" : 1,
					"numoutlets" : 2,
					"id" : "obj-37",
					"fontname" : "Arial",
					"outlettype" : [ "float", "bang" ],
					"triscale" : 0.9
				}

			}
, 			{
				"box" : 				{
					"maxclass" : "message",
					"text" : "rate $1",
					"patching_rect" : [ 165.572891, 124.786163, 45.0, 18.0 ],
					"fontsize" : 11.595187,
					"numinlets" : 2,
					"numoutlets" : 1,
					"id" : "obj-38",
					"fontname" : "Arial",
					"outlettype" : [ "" ]
				}

			}
, 			{
				"box" : 				{
					"maxclass" : "message",
					"text" : "read",
					"patching_rect" : [ 99.189255, 124.786163, 32.0, 18.0 ],
					"fontsize" : 11.595187,
					"numinlets" : 2,
					"numoutlets" : 1,
					"id" : "obj-39",
					"fontname" : "Arial",
					"outlettype" : [ "" ]
				}

			}
, 			{
				"box" : 				{
					"maxclass" : "flonum",
					"patching_rect" : [ 61.0, 101.264153, 50.0, 20.0 ],
					"fontsize" : 11.595187,
					"numinlets" : 1,
					"minimum" : 0.5,
					"numoutlets" : 2,
					"id" : "obj-40",
					"fontname" : "Arial",
					"outlettype" : [ "float", "bang" ],
					"triscale" : 0.9
				}

			}
, 			{
				"box" : 				{
					"maxclass" : "toggle",
					"patching_rect" : [ 17.0, 101.264153, 20.0, 20.0 ],
					"numinlets" : 1,
					"numoutlets" : 1,
					"id" : "obj-41",
					"outlettype" : [ "int" ]
				}

			}
, 			{
				"box" : 				{
					"maxclass" : "newobj",
					"text" : "qmetro 30",
					"patching_rect" : [ 17.0, 124.786163, 63.0, 20.0 ],
					"fontsize" : 11.595187,
					"numinlets" : 2,
					"numoutlets" : 1,
					"id" : "obj-42",
					"fontname" : "Arial",
					"outlettype" : [ "bang" ]
				}

			}
, 			{
				"box" : 				{
					"maxclass" : "newobj",
					"text" : "jit.qt.movie 320 240",
					"patching_rect" : [ 17.0, 169.477982, 109.0, 20.0 ],
					"fontsize" : 11.595187,
					"numinlets" : 1,
					"numoutlets" : 2,
					"id" : "obj-43",
					"fontname" : "Arial",
					"outlettype" : [ "jit_matrix", "" ]
				}

			}
, 			{
				"box" : 				{
					"maxclass" : "jit.pwindow",
					"patching_rect" : [ 17.0, 303.0, 320.0, 240.0 ],
					"numinlets" : 1,
					"background" : 1,
					"numoutlets" : 2,
					"id" : "obj-44",
					"outlettype" : [ "", "" ]
				}

			}
, 			{
				"box" : 				{
					"maxclass" : "comment",
					"text" : "can use a scalar, too",
					"patching_rect" : [ 140.0, 234.0, 115.0, 20.0 ],
					"frgb" : [ 0.0, 0.0, 0.0, 1.0 ],
					"fontsize" : 11.595187,
					"numinlets" : 1,
					"numoutlets" : 0,
					"id" : "obj-45",
					"fontname" : "Arial"
				}

			}
, 			{
				"box" : 				{
					"maxclass" : "comment",
					"text" : "supports: any type/planecount.",
					"patching_rect" : [ 364.0, 442.108429, 183.0, 20.0 ],
					"frgb" : [ 0.0, 0.0, 0.0, 1.0 ],
					"fontsize" : 11.595187,
					"numinlets" : 1,
					"numoutlets" : 0,
					"id" : "obj-46",
					"fontname" : "Arial"
				}

			}
, 			{
				"box" : 				{
					"maxclass" : "comment",
					"varname" : "autohelp_top_title",
					"text" : "jit.op",
					"patching_rect" : [ 10.0, 8.0, 485.0, 30.0 ],
					"fontface" : 3,
					"frgb" : [ 0.27, 0.35, 0.47, 1.0 ],
					"fontsize" : 20.871338,
					"textcolor" : [ 0.27, 0.35, 0.47, 1.0 ],
					"numinlets" : 1,
					"numoutlets" : 0,
					"id" : "obj-1",
					"fontname" : "Arial"
				}

			}
, 			{
				"box" : 				{
					"maxclass" : "comment",
					"varname" : "autohelp_top_digest",
					"text" : "Apply binary or unary operators",
					"patching_rect" : [ 10.0, 36.0, 485.0, 21.0 ],
					"frgb" : [ 0.27, 0.35, 0.47, 1.0 ],
					"fontsize" : 12.754705,
					"textcolor" : [ 0.27, 0.35, 0.47, 1.0 ],
					"numinlets" : 1,
					"numoutlets" : 0,
					"id" : "obj-2",
					"fontname" : "Arial"
				}

			}
, 			{
				"box" : 				{
					"maxclass" : "comment",
					"varname" : "autohelp_top_description",
					"text" : "The jit.op object applies either a binary operator to two input matrices, or a unary operator to the left input matrix. A different operator may be specified for each plane, or a scalar may be specified via the val attribute as an alternate to using a second matrix.",
					"linecount" : 2,
					"patching_rect" : [ 10.0, 57.0, 691.0, 33.0 ],
					"frgb" : [ 0.0, 0.0, 0.0, 1.0 ],
					"fontsize" : 11.595187,
					"numinlets" : 1,
					"numoutlets" : 0,
					"id" : "obj-3",
					"fontname" : "Arial"
				}

			}
, 			{
				"box" : 				{
					"maxclass" : "textbutton",
					"varname" : "autohelp_top_ref",
					"bgovercolor" : [ 0.0, 0.0, 0.0, 0.0 ],
					"bordercolor" : [ 0.0, 0.0, 0.0, 0.0 ],
					"patching_rect" : [ 366.551727, 22.0, 133.448273, 14.666666 ],
					"fontface" : 3,
					"underline" : 1,
					"fontsize" : 12.754705,
					"textcolor" : [ 0.296, 0.38, 0.506, 1.0 ],
					"bgcolor" : [ 0.0, 0.0, 0.0, 0.0 ],
					"bgoveroncolor" : [ 0.0, 0.0, 0.0, 0.0 ],
					"spacing_x" : 0.0,
					"bgoncolor" : [ 0.0, 0.0, 0.0, 0.0 ],
					"text" : "open jit.op reference",
					"numinlets" : 1,
					"spacing_y" : 0.0,
					"textoncolor" : [ 0.27, 0.35, 0.47, 1.0 ],
					"numoutlets" : 3,
					"id" : "obj-5",
					"fontname" : "Arial",
					"fontlink" : 1,
					"textovercolor" : [ 0.4, 0.5, 0.65, 1.0 ],
					"presentation_rect" : [ 0.0, 0.0, 133.448273, 14.666666 ],
					"outlettype" : [ "int", "", "int" ]
				}

			}
, 			{
				"box" : 				{
					"maxclass" : "comment",
					"varname" : "autohelp_see_title",
					"text" : "See Also:",
					"patching_rect" : [ 569.0, 525.0, 100.0, 20.0 ],
					"fontface" : 1,
					"frgb" : [ 0.0, 0.0, 0.0, 1.0 ],
					"fontsize" : 11.595187,
					"numinlets" : 1,
					"numoutlets" : 0,
					"id" : "obj-7",
					"fontname" : "Arial"
				}

			}
, 			{
				"box" : 				{
					"maxclass" : "umenu",
					"varname" : "autohelp_see_menu",
					"types" : [  ],
					"patching_rect" : [ 569.0, 545.0, 130.0, 20.0 ],
					"fontsize" : 11.595187,
					"items" : [ "(Objects:)", ",", "expr", ",", "jit.expr", ",", "vexpr", ",", "<separator>", ",", "(Tutorials:)", ",", "Tutorial 3: Math Operations on a Matrix", ",", "Tutorial 5: ARGB Color", ",", "Tutorial 9: More Mixing", ",", "Tutorial 18: Iterative Processes and Matrix Re-Sampling", ",", "Tutorial 45: Introduction to using Jitter within JavaScript" ],
					"numinlets" : 1,
					"numoutlets" : 3,
					"id" : "obj-8",
					"fontname" : "Arial",
					"outlettype" : [ "int", "", "" ]
				}

			}
, 			{
				"box" : 				{
					"maxclass" : "panel",
					"varname" : "autohelp_top_panel",
					"grad1" : [ 0.86, 0.86, 0.75, 1.0 ],
					"patching_rect" : [ 5.0, 5.0, 495.0, 52.0 ],
					"grad2" : [ 0.78, 0.84, 0.86, 0.7 ],
					"mode" : 1,
					"numinlets" : 1,
					"background" : 1,
					"numoutlets" : 0,
					"id" : "obj-6"
				}

			}
, 			{
				"box" : 				{
					"maxclass" : "panel",
					"varname" : "autohelp_see_panel",
					"bordercolor" : [ 0.5, 0.5, 0.5, 0.75 ],
					"patching_rect" : [ 564.0, 521.0, 140.0, 50.0 ],
					"bgcolor" : [ 0.85, 0.85, 0.85, 0.75 ],
					"border" : 2,
					"numinlets" : 1,
					"background" : 1,
					"numoutlets" : 0,
					"id" : "obj-9"
				}

			}
 ],
		"lines" : [ 			{
				"patchline" : 				{
					"source" : [ "obj-14", 1 ],
					"destination" : [ "obj-28", 0 ],
					"hidden" : 0,
					"midpoints" : [  ]
				}

			}
, 			{
				"patchline" : 				{
					"source" : [ "obj-33", 0 ],
					"destination" : [ "obj-34", 0 ],
					"hidden" : 0,
					"midpoints" : [  ]
				}

			}
, 			{
				"patchline" : 				{
					"source" : [ "obj-42", 0 ],
					"destination" : [ "obj-30", 1 ],
					"hidden" : 0,
					"midpoints" : [ 26.5, 161.245285, 221.419434, 161.245285, 221.419434, 101.264153, 249.241684, 101.264153 ]
				}

			}
, 			{
				"patchline" : 				{
					"source" : [ "obj-18", 0 ],
					"destination" : [ "obj-36", 0 ],
					"hidden" : 0,
					"midpoints" : [ 354.203339, 155.364777, 237.241684, 155.364777 ]
				}

			}
, 			{
				"patchline" : 				{
					"source" : [ "obj-34", 0 ],
					"destination" : [ "obj-36", 0 ],
					"hidden" : 0,
					"midpoints" : [ 385.814575, 155.364777, 237.241684, 155.364777 ]
				}

			}
, 			{
				"patchline" : 				{
					"source" : [ "obj-35", 0 ],
					"destination" : [ "obj-36", 0 ],
					"hidden" : 0,
					"midpoints" : [ 319.430939, 155.364777, 237.241684, 155.364777 ]
				}

			}
, 			{
				"patchline" : 				{
					"source" : [ "obj-30", 0 ],
					"destination" : [ "obj-36", 0 ],
					"hidden" : 0,
					"midpoints" : [  ]
				}

			}
, 			{
				"patchline" : 				{
					"source" : [ "obj-29", 0 ],
					"destination" : [ "obj-30", 0 ],
					"hidden" : 0,
					"midpoints" : [  ]
				}

			}
, 			{
				"patchline" : 				{
					"source" : [ "obj-37", 0 ],
					"destination" : [ "obj-38", 0 ],
					"hidden" : 0,
					"midpoints" : [  ]
				}

			}
, 			{
				"patchline" : 				{
					"source" : [ "obj-32", 1 ],
					"destination" : [ "obj-31", 0 ],
					"hidden" : 0,
					"midpoints" : [  ]
				}

			}
, 			{
				"patchline" : 				{
					"source" : [ "obj-26", 0 ],
					"destination" : [ "obj-32", 1 ],
					"hidden" : 0,
					"midpoints" : [ 145.5, 221.0, 127.5, 221.0 ]
				}

			}
, 			{
				"patchline" : 				{
					"source" : [ "obj-27", 0 ],
					"destination" : [ "obj-32", 1 ],
					"hidden" : 0,
					"midpoints" : [ 198.5, 221.0, 127.5, 221.0 ]
				}

			}
, 			{
				"patchline" : 				{
					"source" : [ "obj-36", 0 ],
					"destination" : [ "obj-32", 1 ],
					"hidden" : 0,
					"midpoints" : [ 237.241684, 195.0, 127.5, 195.0 ]
				}

			}
, 			{
				"patchline" : 				{
					"source" : [ "obj-40", 0 ],
					"destination" : [ "obj-42", 1 ],
					"hidden" : 0,
					"midpoints" : [  ]
				}

			}
, 			{
				"patchline" : 				{
					"source" : [ "obj-44", 0 ],
					"destination" : [ "obj-13", 0 ],
					"hidden" : 0,
					"midpoints" : [  ]
				}

			}
, 			{
				"patchline" : 				{
					"source" : [ "obj-23", 0 ],
					"destination" : [ "obj-32", 0 ],
					"hidden" : 0,
					"midpoints" : [ 552.211548, 226.0, 26.5, 226.0 ]
				}

			}
, 			{
				"patchline" : 				{
					"source" : [ "obj-24", 0 ],
					"destination" : [ "obj-32", 0 ],
					"hidden" : 0,
					"midpoints" : [ 482.673065, 226.0, 26.5, 226.0 ]
				}

			}
, 			{
				"patchline" : 				{
					"source" : [ "obj-28", 0 ],
					"destination" : [ "obj-32", 0 ],
					"hidden" : 0,
					"midpoints" : [ 388.0, 226.0, 26.5, 226.0 ]
				}

			}
, 			{
				"patchline" : 				{
					"source" : [ "obj-43", 0 ],
					"destination" : [ "obj-32", 0 ],
					"hidden" : 0,
					"midpoints" : [  ]
				}

			}
, 			{
				"patchline" : 				{
					"source" : [ "obj-19", 0 ],
					"destination" : [ "obj-43", 0 ],
					"hidden" : 0,
					"midpoints" : [ 142.407928, 155.364777, 26.5, 155.364777 ]
				}

			}
, 			{
				"patchline" : 				{
					"source" : [ "obj-39", 0 ],
					"destination" : [ "obj-43", 0 ],
					"hidden" : 0,
					"midpoints" : [ 108.689255, 155.364777, 26.5, 155.364777 ]
				}

			}
, 			{
				"patchline" : 				{
					"source" : [ "obj-38", 0 ],
					"destination" : [ "obj-43", 0 ],
					"hidden" : 0,
					"midpoints" : [ 175.072891, 155.364777, 26.5, 155.364777 ]
				}

			}
, 			{
				"patchline" : 				{
					"source" : [ "obj-42", 0 ],
					"destination" : [ "obj-43", 0 ],
					"hidden" : 0,
					"midpoints" : [ 26.5, 161.245285, 26.5, 161.245285 ]
				}

			}
, 			{
				"patchline" : 				{
					"source" : [ "obj-41", 0 ],
					"destination" : [ "obj-42", 0 ],
					"hidden" : 0,
					"midpoints" : [  ]
				}

			}
, 			{
				"patchline" : 				{
					"source" : [ "obj-32", 0 ],
					"destination" : [ "obj-44", 0 ],
					"hidden" : 0,
					"midpoints" : [  ]
				}

			}
 ]
	}

}
