{
	"patcher" : 	{
		"fileversion" : 1,
		"rect" : [ 32.0, 47.0, 572.0, 644.0 ],
		"bglocked" : 0,
		"defrect" : [ 32.0, 47.0, 572.0, 644.0 ],
		"openrect" : [ 0.0, 0.0, 0.0, 0.0 ],
		"openinpresentation" : 0,
		"default_fontsize" : 11.595187,
		"default_fontface" : 0,
		"default_fontname" : "Arial",
		"gridonopen" : 0,
		"gridsize" : [ 15.0, 15.0 ],
		"gridsnaponopen" : 0,
		"toolbarvisible" : 1,
		"boxanimatetime" : 200,
		"imprint" : 0,
		"metadata" : [  ],
		"boxes" : [ 			{
				"box" : 				{
					"maxclass" : "message",
					"text" : "stop",
					"numoutlets" : 1,
					"fontsize" : 11.595187,
					"outlettype" : [ "" ],
					"patching_rect" : [ 149.0, 181.0, 32.5, 18.0 ],
					"id" : "obj-5",
					"fontname" : "Arial",
					"numinlets" : 2
				}

			}
, 			{
				"box" : 				{
					"maxclass" : "flonum",
					"numoutlets" : 2,
					"fontsize" : 11.595187,
					"outlettype" : [ "float", "bang" ],
					"triscale" : 0.9,
					"patching_rect" : [ 183.0, 154.0, 50.0, 20.0 ],
					"id" : "obj-6",
					"fontname" : "Arial",
					"numinlets" : 1
				}

			}
, 			{
				"box" : 				{
					"maxclass" : "message",
					"text" : "rate $1",
					"numoutlets" : 1,
					"fontsize" : 11.595187,
					"outlettype" : [ "" ],
					"patching_rect" : [ 183.0, 181.0, 47.0, 18.0 ],
					"id" : "obj-7",
					"fontname" : "Arial",
					"numinlets" : 2
				}

			}
, 			{
				"box" : 				{
					"maxclass" : "message",
					"text" : "read",
					"numoutlets" : 1,
					"fontsize" : 11.595187,
					"outlettype" : [ "" ],
					"patching_rect" : [ 113.0, 181.0, 34.0, 18.0 ],
					"id" : "obj-8",
					"fontname" : "Arial",
					"numinlets" : 2
				}

			}
, 			{
				"box" : 				{
					"maxclass" : "number",
					"numoutlets" : 2,
					"fontsize" : 11.595187,
					"outlettype" : [ "int", "bang" ],
					"triscale" : 0.9,
					"patching_rect" : [ 88.0, 153.0, 50.0, 20.0 ],
					"id" : "obj-37",
					"fontname" : "Arial",
					"numinlets" : 1
				}

			}
, 			{
				"box" : 				{
					"maxclass" : "toggle",
					"numoutlets" : 1,
					"outlettype" : [ "int" ],
					"patching_rect" : [ 44.0, 153.0, 20.0, 20.0 ],
					"id" : "obj-41",
					"numinlets" : 1
				}

			}
, 			{
				"box" : 				{
					"maxclass" : "newobj",
					"text" : "qmetro 30",
					"numoutlets" : 1,
					"fontsize" : 11.595187,
					"outlettype" : [ "bang" ],
					"patching_rect" : [ 44.0, 181.0, 63.0, 20.0 ],
					"id" : "obj-42",
					"fontname" : "Arial",
					"numinlets" : 2
				}

			}
, 			{
				"box" : 				{
					"maxclass" : "newobj",
					"text" : "jit.qt.movie 320 240",
					"numoutlets" : 2,
					"fontsize" : 11.595187,
					"outlettype" : [ "jit_matrix", "" ],
					"patching_rect" : [ 44.0, 213.0, 111.0, 20.0 ],
					"id" : "obj-43",
					"fontname" : "Arial",
					"numinlets" : 1
				}

			}
, 			{
				"box" : 				{
					"maxclass" : "newobj",
					"text" : "autohelp",
					"numoutlets" : 0,
					"fontsize" : 11.595187,
					"patching_rect" : [ 405.0, 570.0, 55.0, 20.0 ],
					"hidden" : 1,
					"id" : "obj-4",
					"fontname" : "Arial",
					"numinlets" : 1
				}

			}
, 			{
				"box" : 				{
					"maxclass" : "jit.fpsgui",
					"numoutlets" : 1,
					"fontsize" : 11.595187,
					"outlettype" : [ "" ],
					"patching_rect" : [ 44.0, 601.0, 80.0, 31.682453 ],
					"id" : "obj-12",
					"fontname" : "Arial",
					"numinlets" : 1
				}

			}
, 			{
				"box" : 				{
					"maxclass" : "toggle",
					"numoutlets" : 1,
					"outlettype" : [ "int" ],
					"patching_rect" : [ 187.0, 247.0, 20.0, 20.0 ],
					"id" : "obj-13",
					"numinlets" : 1
				}

			}
, 			{
				"box" : 				{
					"maxclass" : "message",
					"text" : "mode $1",
					"numoutlets" : 1,
					"fontsize" : 11.595187,
					"outlettype" : [ "" ],
					"patching_rect" : [ 187.0, 272.0, 56.0, 18.0 ],
					"id" : "obj-14",
					"fontname" : "Arial",
					"numinlets" : 2
				}

			}
, 			{
				"box" : 				{
					"maxclass" : "comment",
					"text" : "note: the threshold refers to _cells_, not planes. for example, suppose you have a 4 plane matrix and a threshold value of 3. if you have a single matrix cell with 4 items (one per plane) which are different from the previously passed frame, it will not trigger a new frame.",
					"linecount" : 5,
					"numoutlets" : 0,
					"fontsize" : 11.595187,
					"patching_rect" : [ 255.0, 255.0, 298.0, 73.0 ],
					"id" : "obj-15",
					"fontname" : "Arial",
					"numinlets" : 1
				}

			}
, 			{
				"box" : 				{
					"maxclass" : "number",
					"numoutlets" : 2,
					"fontsize" : 11.595187,
					"outlettype" : [ "int", "bang" ],
					"triscale" : 0.9,
					"patching_rect" : [ 121.0, 247.0, 50.0, 20.0 ],
					"id" : "obj-16",
					"fontname" : "Arial",
					"numinlets" : 1
				}

			}
, 			{
				"box" : 				{
					"maxclass" : "message",
					"text" : "thresh $1",
					"numoutlets" : 1,
					"fontsize" : 11.595187,
					"outlettype" : [ "" ],
					"patching_rect" : [ 121.0, 272.0, 59.0, 18.0 ],
					"id" : "obj-17",
					"fontname" : "Arial",
					"numinlets" : 2
				}

			}
, 			{
				"box" : 				{
					"maxclass" : "newobj",
					"text" : "print",
					"numoutlets" : 0,
					"fontsize" : 11.595187,
					"patching_rect" : [ 85.0, 326.0, 33.0, 20.0 ],
					"id" : "obj-18",
					"fontname" : "Arial",
					"numinlets" : 1
				}

			}
, 			{
				"box" : 				{
					"maxclass" : "newobj",
					"text" : "jit.change",
					"numoutlets" : 2,
					"fontsize" : 11.595187,
					"outlettype" : [ "jit_matrix", "" ],
					"patching_rect" : [ 44.0, 303.0, 60.0, 20.0 ],
					"id" : "obj-20",
					"fontname" : "Arial",
					"numinlets" : 1
				}

			}
, 			{
				"box" : 				{
					"maxclass" : "jit.pwindow",
					"numoutlets" : 2,
					"background" : 1,
					"outlettype" : [ "", "" ],
					"patching_rect" : [ 44.0, 352.0, 320.0, 240.0 ],
					"id" : "obj-21",
					"numinlets" : 1
				}

			}
, 			{
				"box" : 				{
					"maxclass" : "comment",
					"text" : "jit.change only passes _different_ frames, within a threshold of difference. a threshold of 0 means that even 1 different matrix cell between 2 frames will cause that frame to pass. higher values refer explicitly to the matrix cell count required to cause output (5000 means it will take 5000 different matrix cells to cause the matrix to be output).",
					"linecount" : 7,
					"numoutlets" : 0,
					"fontsize" : 11.595187,
					"patching_rect" : [ 255.0, 156.0, 277.0, 100.0 ],
					"id" : "obj-29",
					"fontname" : "Arial",
					"numinlets" : 1
				}

			}
, 			{
				"box" : 				{
					"maxclass" : "comment",
					"varname" : "autohelp_top_title",
					"text" : "jit.change",
					"numoutlets" : 0,
					"fontface" : 3,
					"fontsize" : 20.871338,
					"patching_rect" : [ 10.0, 8.0, 485.0, 30.0 ],
					"id" : "obj-10",
					"frgb" : [ 0.27, 0.35, 0.47, 1.0 ],
					"fontname" : "Arial",
					"textcolor" : [ 0.27, 0.35, 0.47, 1.0 ],
					"numinlets" : 1
				}

			}
, 			{
				"box" : 				{
					"maxclass" : "comment",
					"varname" : "autohelp_top_digest",
					"text" : "Only pass different frames",
					"numoutlets" : 0,
					"fontsize" : 12.754705,
					"patching_rect" : [ 10.0, 36.0, 485.0, 21.0 ],
					"id" : "obj-11",
					"frgb" : [ 0.27, 0.35, 0.47, 1.0 ],
					"fontname" : "Arial",
					"textcolor" : [ 0.27, 0.35, 0.47, 1.0 ],
					"numinlets" : 1
				}

			}
, 			{
				"box" : 				{
					"maxclass" : "comment",
					"varname" : "autohelp_top_description",
					"text" : "The jit.change object calculates the number of cells in which the current matrix differs from the previously received matrix, and based on this difference either passes the matrix or not. In mode 0 (default), the matrix is passed if the difference is greater than the specified threshold, otherwise not. In mode 1, the matrix is passed if the difference is less than the specified threshold, otherwise not. This object is particularly useful for reducing the density of dataflow and for motion tracking applications.",
					"linecount" : 6,
					"numoutlets" : 0,
					"fontsize" : 11.595187,
					"patching_rect" : [ 10.0, 57.0, 488.0, 86.0 ],
					"id" : "obj-19",
					"fontname" : "Arial",
					"numinlets" : 1
				}

			}
, 			{
				"box" : 				{
					"maxclass" : "textbutton",
					"varname" : "autohelp_top_ref",
					"text" : "open jit.change reference",
					"spacing_y" : 0.0,
					"numoutlets" : 3,
					"textoncolor" : [ 0.27, 0.35, 0.47, 1.0 ],
					"bordercolor" : [ 0.0, 0.0, 0.0, 0.0 ],
					"fontface" : 3,
					"fontsize" : 12.754705,
					"fontlink" : 1,
					"outlettype" : [ "int", "", "int" ],
					"textovercolor" : [ 0.4, 0.5, 0.65, 1.0 ],
					"presentation_rect" : [ 0.0, 0.0, 162.520004, 14.666666 ],
					"bgovercolor" : [ 0.0, 0.0, 0.0, 0.0 ],
					"bgcolor" : [ 0.0, 0.0, 0.0, 0.0 ],
					"patching_rect" : [ 337.47998, 22.0, 162.520004, 14.666666 ],
					"bgoveroncolor" : [ 0.0, 0.0, 0.0, 0.0 ],
					"id" : "obj-22",
					"fontname" : "Arial",
					"underline" : 1,
					"textcolor" : [ 0.27, 0.35, 0.47, 1.0 ],
					"spacing_x" : 0.0,
					"numinlets" : 1,
					"bgoncolor" : [ 0.0, 0.0, 0.0, 0.0 ]
				}

			}
, 			{
				"box" : 				{
					"maxclass" : "comment",
					"varname" : "autohelp_see_title",
					"text" : "See Also:",
					"numoutlets" : 0,
					"fontface" : 1,
					"fontsize" : 11.595187,
					"patching_rect" : [ 410.0, 574.0, 100.0, 20.0 ],
					"id" : "obj-24",
					"fontname" : "Arial",
					"numinlets" : 1
				}

			}
, 			{
				"box" : 				{
					"maxclass" : "umenu",
					"varname" : "autohelp_see_menu",
					"numoutlets" : 3,
					"fontsize" : 11.595187,
					"outlettype" : [ "int", "", "" ],
					"items" : [ "(Objects:)", ",", "jit.op" ],
					"types" : [  ],
					"patching_rect" : [ 410.0, 594.0, 130.0, 20.0 ],
					"id" : "obj-25",
					"fontname" : "Arial",
					"numinlets" : 1
				}

			}
, 			{
				"box" : 				{
					"maxclass" : "panel",
					"varname" : "autohelp_top_panel",
					"numoutlets" : 0,
					"background" : 1,
					"grad1" : [ 0.86, 0.86, 0.75, 1.0 ],
					"patching_rect" : [ 5.0, 5.0, 495.0, 52.0 ],
					"grad2" : [ 0.78, 0.84, 0.86, 0.7 ],
					"id" : "obj-23",
					"mode" : 1,
					"numinlets" : 1
				}

			}
, 			{
				"box" : 				{
					"maxclass" : "panel",
					"varname" : "autohelp_see_panel",
					"numoutlets" : 0,
					"bordercolor" : [ 0.5, 0.5, 0.5, 0.75 ],
					"background" : 1,
					"bgcolor" : [ 0.85, 0.85, 0.85, 0.75 ],
					"patching_rect" : [ 405.0, 570.0, 140.0, 50.0 ],
					"id" : "obj-26",
					"border" : 2,
					"numinlets" : 1
				}

			}
 ],
		"lines" : [ 			{
				"patchline" : 				{
					"source" : [ "obj-43", 0 ],
					"destination" : [ "obj-20", 0 ],
					"hidden" : 0
				}

			}
, 			{
				"patchline" : 				{
					"source" : [ "obj-41", 0 ],
					"destination" : [ "obj-42", 0 ],
					"hidden" : 0
				}

			}
, 			{
				"patchline" : 				{
					"source" : [ "obj-42", 0 ],
					"destination" : [ "obj-43", 0 ],
					"hidden" : 0
				}

			}
, 			{
				"patchline" : 				{
					"source" : [ "obj-8", 0 ],
					"destination" : [ "obj-43", 0 ],
					"hidden" : 0,
					"midpoints" : [ 122.5, 204.0, 53.5, 204.0 ]
				}

			}
, 			{
				"patchline" : 				{
					"source" : [ "obj-5", 0 ],
					"destination" : [ "obj-43", 0 ],
					"hidden" : 0,
					"midpoints" : [ 158.5, 204.0, 53.5, 204.0 ]
				}

			}
, 			{
				"patchline" : 				{
					"source" : [ "obj-7", 0 ],
					"destination" : [ "obj-43", 0 ],
					"hidden" : 0,
					"midpoints" : [ 192.5, 204.0, 53.5, 204.0 ]
				}

			}
, 			{
				"patchline" : 				{
					"source" : [ "obj-37", 0 ],
					"destination" : [ "obj-42", 1 ],
					"hidden" : 0
				}

			}
, 			{
				"patchline" : 				{
					"source" : [ "obj-6", 0 ],
					"destination" : [ "obj-7", 0 ],
					"hidden" : 0
				}

			}
, 			{
				"patchline" : 				{
					"source" : [ "obj-20", 0 ],
					"destination" : [ "obj-21", 0 ],
					"hidden" : 0
				}

			}
, 			{
				"patchline" : 				{
					"source" : [ "obj-17", 0 ],
					"destination" : [ "obj-20", 0 ],
					"hidden" : 0,
					"midpoints" : [ 130.5, 295.0, 53.5, 295.0 ]
				}

			}
, 			{
				"patchline" : 				{
					"source" : [ "obj-14", 0 ],
					"destination" : [ "obj-20", 0 ],
					"hidden" : 0,
					"midpoints" : [ 196.5, 295.0, 53.5, 295.0 ]
				}

			}
, 			{
				"patchline" : 				{
					"source" : [ "obj-21", 0 ],
					"destination" : [ "obj-12", 0 ],
					"hidden" : 0
				}

			}
, 			{
				"patchline" : 				{
					"source" : [ "obj-20", 1 ],
					"destination" : [ "obj-18", 0 ],
					"hidden" : 0
				}

			}
, 			{
				"patchline" : 				{
					"source" : [ "obj-16", 0 ],
					"destination" : [ "obj-17", 0 ],
					"hidden" : 0
				}

			}
, 			{
				"patchline" : 				{
					"source" : [ "obj-13", 0 ],
					"destination" : [ "obj-14", 0 ],
					"hidden" : 0
				}

			}
 ]
	}

}
