{
	"patcher" : 	{
		"fileversion" : 1,
		"rect" : [ 32.0, 52.0, 510.0, 379.0 ],
		"bglocked" : 0,
		"defrect" : [ 32.0, 52.0, 510.0, 379.0 ],
		"openrect" : [ 0.0, 0.0, 0.0, 0.0 ],
		"openinpresentation" : 0,
		"default_fontsize" : 11.595187,
		"default_fontface" : 0,
		"default_fontname" : "Arial",
		"gridonopen" : 0,
		"gridsize" : [ 15.0, 15.0 ],
		"gridsnaponopen" : 0,
		"toolbarvisible" : 1,
		"boxanimatetime" : 200,
		"imprint" : 0,
		"metadata" : [  ],
		"boxes" : [ 			{
				"box" : 				{
					"maxclass" : "newobj",
					"text" : "autohelp",
					"patching_rect" : [ 337.0, 308.0, 55.0, 20.0 ],
					"id" : "obj-6",
					"numinlets" : 1,
					"fontname" : "Arial",
					"numoutlets" : 0,
					"fontsize" : 11.595187,
					"hidden" : 1
				}

			}
, 			{
				"box" : 				{
					"maxclass" : "newobj",
					"text" : "loadbang",
					"patching_rect" : [ 19.0, 118.0, 56.0, 20.0 ],
					"id" : "obj-15",
					"numinlets" : 1,
					"fontname" : "Arial",
					"numoutlets" : 1,
					"outlettype" : [ "bang" ],
					"fontsize" : 11.595187,
					"hidden" : 1
				}

			}
, 			{
				"box" : 				{
					"maxclass" : "jit.fpsgui",
					"patching_rect" : [ 48.0, 204.0, 80.0, 34.666664 ],
					"mode" : 3,
					"id" : "obj-16",
					"numinlets" : 1,
					"fontname" : "Arial",
					"numoutlets" : 2,
					"outlettype" : [ "", "" ],
					"fontsize" : 11.595187
				}

			}
, 			{
				"box" : 				{
					"maxclass" : "button",
					"patching_rect" : [ 19.0, 141.0, 20.0, 20.0 ],
					"id" : "obj-17",
					"numinlets" : 1,
					"numoutlets" : 1,
					"outlettype" : [ "bang" ]
				}

			}
, 			{
				"box" : 				{
					"maxclass" : "jit.fpsgui",
					"patching_rect" : [ 19.0, 318.0, 80.0, 34.666664 ],
					"mode" : 3,
					"id" : "obj-18",
					"numinlets" : 1,
					"fontname" : "Arial",
					"numoutlets" : 2,
					"outlettype" : [ "", "" ],
					"fontsize" : 11.595187
				}

			}
, 			{
				"box" : 				{
					"maxclass" : "newobj",
					"text" : "print",
					"patching_rect" : [ 41.0, 272.0, 33.0, 20.0 ],
					"id" : "obj-19",
					"numinlets" : 1,
					"fontname" : "Arial",
					"numoutlets" : 0,
					"fontsize" : 11.595187
				}

			}
, 			{
				"box" : 				{
					"maxclass" : "newobj",
					"text" : "jit.thin",
					"patching_rect" : [ 19.0, 248.0, 41.0, 20.0 ],
					"id" : "obj-20",
					"numinlets" : 1,
					"fontname" : "Arial",
					"numoutlets" : 2,
					"outlettype" : [ "jit_matrix", "" ],
					"fontsize" : 11.595187
				}

			}
, 			{
				"box" : 				{
					"maxclass" : "comment",
					"text" : "supports: any type/planecount",
					"patching_rect" : [ 250.0, 238.0, 163.0, 20.0 ],
					"id" : "obj-21",
					"numinlets" : 1,
					"fontname" : "Arial",
					"numoutlets" : 0,
					"fontsize" : 11.595187
				}

			}
, 			{
				"box" : 				{
					"maxclass" : "newobj",
					"text" : "jit.matrix 4 char 10 1 15 1 1 4 2 1 2",
					"patching_rect" : [ 19.0, 166.0, 189.0, 20.0 ],
					"id" : "obj-22",
					"numinlets" : 1,
					"fontname" : "Arial",
					"numoutlets" : 2,
					"outlettype" : [ "jit_matrix", "" ],
					"fontsize" : 11.595187
				}

			}
, 			{
				"box" : 				{
					"maxclass" : "comment",
					"varname" : "autohelp_top_title",
					"text" : "jit.thin",
					"frgb" : [ 0.27, 0.35, 0.47, 1.0 ],
					"patching_rect" : [ 10.0, 8.0, 485.0, 30.0 ],
					"id" : "obj-1",
					"numinlets" : 1,
					"fontname" : "Arial",
					"textcolor" : [ 0.27, 0.35, 0.47, 1.0 ],
					"numoutlets" : 0,
					"fontface" : 3,
					"fontsize" : 20.871338
				}

			}
, 			{
				"box" : 				{
					"maxclass" : "comment",
					"varname" : "autohelp_top_digest",
					"text" : "Remove redundant dimensions of size 1",
					"frgb" : [ 0.27, 0.35, 0.47, 1.0 ],
					"patching_rect" : [ 10.0, 36.0, 485.0, 21.0 ],
					"id" : "obj-2",
					"numinlets" : 1,
					"fontname" : "Arial",
					"textcolor" : [ 0.27, 0.35, 0.47, 1.0 ],
					"numoutlets" : 0,
					"fontsize" : 12.754705
				}

			}
, 			{
				"box" : 				{
					"maxclass" : "comment",
					"varname" : "autohelp_top_description",
					"text" : "The jit.thin object removes redundant dimensions of size 1. For example a 320 x 240 x 1 matrix will be converted to a 320 x 240 matrix, and a 10 x 1 x 1 x 2 x 1 x 4 matrix will be converted to a 10 x 2 x 4 matrix. Redundant dimensions of size 1 may be inserted using the jit.dimmap object. ",
					"linecount" : 4,
					"patching_rect" : [ 10.0, 57.0, 485.0, 60.0 ],
					"id" : "obj-3",
					"numinlets" : 1,
					"fontname" : "Arial",
					"numoutlets" : 0,
					"fontsize" : 11.595187
				}

			}
, 			{
				"box" : 				{
					"maxclass" : "textbutton",
					"varname" : "autohelp_top_ref",
					"spacing_y" : 0.0,
					"textoncolor" : [ 0.27, 0.35, 0.47, 1.0 ],
					"bgcolor" : [ 0.0, 0.0, 0.0, 0.0 ],
					"patching_rect" : [ 358.760651, 22.0, 141.239349, 14.666666 ],
					"id" : "obj-4",
					"numinlets" : 1,
					"fontname" : "Arial",
					"fontlink" : 1,
					"textovercolor" : [ 0.4, 0.5, 0.65, 1.0 ],
					"underline" : 1,
					"textcolor" : [ 0.296, 0.38, 0.506, 1.0 ],
					"text" : "open jit.thin reference",
					"numoutlets" : 3,
					"bgovercolor" : [ 0.0, 0.0, 0.0, 0.0 ],
					"bordercolor" : [ 0.0, 0.0, 0.0, 0.0 ],
					"fontface" : 3,
					"outlettype" : [ "int", "", "int" ],
					"fontsize" : 12.754705,
					"bgoveroncolor" : [ 0.0, 0.0, 0.0, 0.0 ],
					"presentation_rect" : [ 0.0, 0.0, 141.239349, 14.666666 ],
					"spacing_x" : 0.0,
					"bgoncolor" : [ 0.0, 0.0, 0.0, 0.0 ]
				}

			}
, 			{
				"box" : 				{
					"maxclass" : "comment",
					"varname" : "autohelp_see_title",
					"text" : "See Also:",
					"patching_rect" : [ 342.0, 312.0, 100.0, 20.0 ],
					"id" : "obj-7",
					"numinlets" : 1,
					"fontname" : "Arial",
					"numoutlets" : 0,
					"fontface" : 1,
					"fontsize" : 11.595187
				}

			}
, 			{
				"box" : 				{
					"maxclass" : "umenu",
					"varname" : "autohelp_see_menu",
					"types" : [  ],
					"patching_rect" : [ 342.0, 332.0, 130.0, 20.0 ],
					"id" : "obj-8",
					"numinlets" : 1,
					"fontname" : "Arial",
					"numoutlets" : 3,
					"outlettype" : [ "int", "", "" ],
					"fontsize" : 11.595187,
					"items" : [ "(Objects:)", ",", "jit.concat", ",", "jit.dimmap", ",", "jit.matrix", ",", "jit.split" ]
				}

			}
, 			{
				"box" : 				{
					"maxclass" : "panel",
					"varname" : "autohelp_top_panel",
					"patching_rect" : [ 5.0, 5.0, 495.0, 52.0 ],
					"mode" : 1,
					"id" : "obj-5",
					"numinlets" : 1,
					"numoutlets" : 0,
					"grad1" : [ 0.86, 0.86, 0.75, 1.0 ],
					"background" : 1,
					"grad2" : [ 0.78, 0.84, 0.86, 0.7 ]
				}

			}
, 			{
				"box" : 				{
					"maxclass" : "panel",
					"varname" : "autohelp_see_panel",
					"bgcolor" : [ 0.85, 0.85, 0.85, 0.75 ],
					"patching_rect" : [ 337.0, 308.0, 140.0, 50.0 ],
					"id" : "obj-9",
					"numinlets" : 1,
					"border" : 2,
					"numoutlets" : 0,
					"bordercolor" : [ 0.5, 0.5, 0.5, 0.75 ],
					"background" : 1
				}

			}
 ],
		"lines" : [ 			{
				"patchline" : 				{
					"source" : [ "obj-15", 0 ],
					"destination" : [ "obj-17", 0 ],
					"hidden" : 1
				}

			}
, 			{
				"patchline" : 				{
					"source" : [ "obj-17", 0 ],
					"destination" : [ "obj-22", 0 ],
					"hidden" : 0
				}

			}
, 			{
				"patchline" : 				{
					"source" : [ "obj-22", 0 ],
					"destination" : [ "obj-20", 0 ],
					"hidden" : 0
				}

			}
, 			{
				"patchline" : 				{
					"source" : [ "obj-20", 0 ],
					"destination" : [ "obj-18", 0 ],
					"hidden" : 0
				}

			}
, 			{
				"patchline" : 				{
					"source" : [ "obj-22", 0 ],
					"destination" : [ "obj-16", 0 ],
					"hidden" : 0,
					"midpoints" : [ 28.5, 193.0, 57.5, 193.0 ]
				}

			}
, 			{
				"patchline" : 				{
					"source" : [ "obj-20", 1 ],
					"destination" : [ "obj-19", 0 ],
					"hidden" : 0
				}

			}
 ]
	}

}
