{
	"patcher" : 	{
		"rect" : [ 43.0, 66.0, 489.0, 339.0 ],
		"bglocked" : 0,
		"defrect" : [ 43.0, 66.0, 489.0, 339.0 ],
		"openrect" : [ 0.0, 0.0, 0.0, 0.0 ],
		"openinpresentation" : 0,
		"default_fontsize" : 10.0,
		"default_fontface" : 0,
		"default_fontname" : "Arial",
		"gridonopen" : 0,
		"gridsize" : [ 15.0, 15.0 ],
		"gridsnaponopen" : 0,
		"toolbarvisible" : 1,
		"boxanimatetime" : 200,
		"imprint" : 0,
		"metadata" : [  ],
		"boxes" : [ 			{
				"box" : 				{
					"maxclass" : "newobj",
					"text" : "autohelp",
					"numinlets" : 1,
					"fontsize" : 10.0,
					"numoutlets" : 0,
					"patching_rect" : [ 332.0, 273.0, 55.0, 20.0 ],
					"id" : "obj-1",
					"fontname" : "Arial",
					"hidden" : 1
				}

			}
, 			{
				"box" : 				{
					"maxclass" : "newobj",
					"text" : "print match",
					"numinlets" : 1,
					"fontsize" : 10.0,
					"numoutlets" : 0,
					"patching_rect" : [ 334.0, 240.0, 68.0, 20.0 ],
					"id" : "obj-13",
					"fontname" : "Arial"
				}

			}
, 			{
				"box" : 				{
					"maxclass" : "message",
					"text" : "erg 88",
					"numinlets" : 2,
					"fontsize" : 10.0,
					"numoutlets" : 1,
					"outlettype" : [ "" ],
					"patching_rect" : [ 414.0, 171.0, 43.0, 18.0 ],
					"id" : "obj-14",
					"fontname" : "Arial"
				}

			}
, 			{
				"box" : 				{
					"maxclass" : "message",
					"text" : "34",
					"numinlets" : 2,
					"fontsize" : 10.0,
					"numoutlets" : 1,
					"outlettype" : [ "" ],
					"patching_rect" : [ 304.0, 171.0, 27.5, 18.0 ],
					"id" : "obj-15",
					"fontname" : "Arial"
				}

			}
, 			{
				"box" : 				{
					"maxclass" : "message",
					"text" : "set 34 erg 88",
					"numinlets" : 2,
					"fontsize" : 10.0,
					"numoutlets" : 1,
					"outlettype" : [ "" ],
					"patching_rect" : [ 334.0, 171.0, 78.0, 18.0 ],
					"id" : "obj-16",
					"fontname" : "Arial"
				}

			}
, 			{
				"box" : 				{
					"maxclass" : "newobj",
					"text" : "match 34",
					"numinlets" : 1,
					"fontsize" : 10.0,
					"numoutlets" : 1,
					"outlettype" : [ "" ],
					"patching_rect" : [ 334.0, 211.0, 58.0, 20.0 ],
					"id" : "obj-17",
					"fontname" : "Arial"
				}

			}
, 			{
				"box" : 				{
					"maxclass" : "message",
					"text" : "1",
					"numinlets" : 2,
					"fontsize" : 10.0,
					"numoutlets" : 1,
					"outlettype" : [ "" ],
					"patching_rect" : [ 17.0, 144.0, 32.5, 18.0 ],
					"id" : "obj-19",
					"fontname" : "Arial"
				}

			}
, 			{
				"box" : 				{
					"maxclass" : "comment",
					"text" : "Click on the boxes in order from left to right",
					"linecount" : 2,
					"numinlets" : 1,
					"fontsize" : 10.0,
					"numoutlets" : 0,
					"patching_rect" : [ 17.0, 111.0, 126.0, 33.0 ],
					"id" : "obj-20",
					"fontname" : "Arial"
				}

			}
, 			{
				"box" : 				{
					"maxclass" : "newobj",
					"text" : "print exact",
					"numinlets" : 1,
					"fontsize" : 10.0,
					"numoutlets" : 0,
					"patching_rect" : [ 17.0, 211.0, 64.0, 20.0 ],
					"id" : "obj-21",
					"fontname" : "Arial"
				}

			}
, 			{
				"box" : 				{
					"maxclass" : "newobj",
					"text" : "match 1 2 3 4",
					"numinlets" : 1,
					"fontsize" : 10.0,
					"numoutlets" : 1,
					"outlettype" : [ "" ],
					"patching_rect" : [ 17.0, 179.0, 81.0, 20.0 ],
					"id" : "obj-22",
					"fontname" : "Arial"
				}

			}
, 			{
				"box" : 				{
					"maxclass" : "message",
					"text" : "4",
					"numinlets" : 2,
					"fontsize" : 10.0,
					"numoutlets" : 1,
					"outlettype" : [ "" ],
					"patching_rect" : [ 119.666664, 144.0, 32.0, 18.0 ],
					"id" : "obj-23",
					"fontname" : "Arial"
				}

			}
, 			{
				"box" : 				{
					"maxclass" : "message",
					"text" : "3",
					"numinlets" : 2,
					"fontsize" : 10.0,
					"numoutlets" : 1,
					"outlettype" : [ "" ],
					"patching_rect" : [ 85.666664, 144.0, 32.0, 18.0 ],
					"id" : "obj-24",
					"fontname" : "Arial"
				}

			}
, 			{
				"box" : 				{
					"maxclass" : "message",
					"text" : "2",
					"numinlets" : 2,
					"fontsize" : 10.0,
					"numoutlets" : 1,
					"outlettype" : [ "" ],
					"patching_rect" : [ 51.666668, 144.0, 32.0, 18.0 ],
					"id" : "obj-25",
					"fontname" : "Arial"
				}

			}
, 			{
				"box" : 				{
					"maxclass" : "slider",
					"numinlets" : 1,
					"numoutlets" : 1,
					"outlettype" : [ "" ],
					"patching_rect" : [ 162.0, 110.0, 17.0, 70.0 ],
					"id" : "obj-26"
				}

			}
, 			{
				"box" : 				{
					"maxclass" : "newobj",
					"text" : "print dontcare",
					"numinlets" : 1,
					"fontsize" : 10.0,
					"numoutlets" : 0,
					"patching_rect" : [ 162.0, 240.0, 81.0, 20.0 ],
					"id" : "obj-27",
					"fontname" : "Arial"
				}

			}
, 			{
				"box" : 				{
					"maxclass" : "newobj",
					"text" : "match 1 2 nn 4",
					"numinlets" : 1,
					"fontsize" : 10.0,
					"numoutlets" : 1,
					"outlettype" : [ "" ],
					"patching_rect" : [ 162.0, 211.0, 87.0, 20.0 ],
					"id" : "obj-28",
					"fontname" : "Arial"
				}

			}
, 			{
				"box" : 				{
					"maxclass" : "message",
					"text" : "1, 2, $1, 4",
					"numinlets" : 2,
					"fontsize" : 10.0,
					"numoutlets" : 1,
					"outlettype" : [ "" ],
					"patching_rect" : [ 162.0, 186.0, 62.0, 18.0 ],
					"id" : "obj-29",
					"fontname" : "Arial"
				}

			}
, 			{
				"box" : 				{
					"maxclass" : "comment",
					"text" : "Move the slider and watch the output in the Max window",
					"linecount" : 4,
					"numinlets" : 1,
					"fontsize" : 10.0,
					"numoutlets" : 0,
					"patching_rect" : [ 183.0, 111.0, 90.0, 60.0 ],
					"id" : "obj-30",
					"fontname" : "Arial"
				}

			}
, 			{
				"box" : 				{
					"maxclass" : "comment",
					"text" : "You can change what you're trying to match with the set message. This clears what has been seen thus far.",
					"linecount" : 3,
					"numinlets" : 1,
					"fontsize" : 10.0,
					"numoutlets" : 0,
					"patching_rect" : [ 281.0, 111.0, 197.0, 46.0 ],
					"id" : "obj-31",
					"fontname" : "Arial"
				}

			}
, 			{
				"box" : 				{
					"maxclass" : "comment",
					"varname" : "autohelp_top_title",
					"text" : "match",
					"numinlets" : 1,
					"fontface" : 3,
					"fontsize" : 18.0,
					"numoutlets" : 0,
					"patching_rect" : [ 10.0, 8.0, 459.0, 30.0 ],
					"id" : "obj-2",
					"fontname" : "Arial",
					"textcolor" : [ 0.93, 0.93, 0.97, 1.0 ],
					"frgb" : [ 0.93, 0.93, 0.97, 1.0 ]
				}

			}
, 			{
				"box" : 				{
					"maxclass" : "comment",
					"varname" : "autohelp_top_digest",
					"text" : "Look for a series of arguments, output it as a list whenever an input matches",
					"numinlets" : 1,
					"fontsize" : 11.0,
					"numoutlets" : 0,
					"patching_rect" : [ 10.0, 36.0, 459.0, 21.0 ],
					"id" : "obj-3",
					"fontname" : "Arial",
					"textcolor" : [ 0.93, 0.93, 0.97, 1.0 ],
					"frgb" : [ 0.93, 0.93, 0.97, 1.0 ]
				}

			}
, 			{
				"box" : 				{
					"maxclass" : "comment",
					"varname" : "autohelp_top_description",
					"text" : "match watches an incoming stream of ints, floats, symbols, lists, or messages, and outputs the stream after it has met the specification of its arguments.",
					"linecount" : 2,
					"numinlets" : 1,
					"fontsize" : 10.0,
					"numoutlets" : 0,
					"patching_rect" : [ 10.0, 57.0, 413.0, 33.0 ],
					"id" : "obj-4",
					"fontname" : "Arial"
				}

			}
, 			{
				"box" : 				{
					"maxclass" : "textbutton",
					"varname" : "autohelp_top_ref",
					"numinlets" : 1,
					"textoncolor" : [ 0.27, 0.35, 0.47, 1.0 ],
					"text" : "open match reference",
					"fontface" : 3,
					"fontsize" : 11.0,
					"numoutlets" : 3,
					"spacing_y" : 0.0,
					"spacing_x" : 0.0,
					"presentation_rect" : [ 0.0, 0.0, 140.610245, 14.66663 ],
					"outlettype" : [ "int", "", "int" ],
					"bgovercolor" : [ 0.0, 0.0, 0.0, 0.0 ],
					"fontlink" : 1,
					"bordercolor" : [ 0.0, 0.0, 0.0, 0.0 ],
					"bgcolor" : [ 0.0, 0.0, 0.0, 0.0 ],
					"patching_rect" : [ 333.389771, 22.0, 140.610245, 14.66663 ],
					"bgoveroncolor" : [ 0.0, 0.0, 0.0, 0.0 ],
					"textovercolor" : [ 0.4, 0.5, 0.65, 1.0 ],
					"id" : "obj-5",
					"fontname" : "Arial",
					"underline" : 1,
					"textcolor" : [ 0.27, 0.35, 0.47, 1.0 ],
					"bgoncolor" : [ 0.0, 0.0, 0.0, 0.0 ]
				}

			}
, 			{
				"box" : 				{
					"maxclass" : "comment",
					"varname" : "autohelp_see_title",
					"text" : "See Also:",
					"numinlets" : 1,
					"fontface" : 1,
					"fontsize" : 10.0,
					"numoutlets" : 0,
					"patching_rect" : [ 337.0, 277.0, 100.0, 20.0 ],
					"id" : "obj-7",
					"fontname" : "Arial"
				}

			}
, 			{
				"box" : 				{
					"maxclass" : "umenu",
					"varname" : "autohelp_see_menu",
					"numinlets" : 1,
					"fontsize" : 10.0,
					"numoutlets" : 3,
					"items" : [ "(Objects:)", ",", "iter", ",", "pack", ",", "select" ],
					"outlettype" : [ "int", "", "" ],
					"types" : [  ],
					"patching_rect" : [ 337.0, 297.0, 130.0, 20.0 ],
					"id" : "obj-8",
					"fontname" : "Arial"
				}

			}
, 			{
				"box" : 				{
					"maxclass" : "panel",
					"varname" : "autohelp_top_panel",
					"mode" : 1,
					"numinlets" : 1,
					"grad2" : [ 0.85, 0.85, 0.85, 1.0 ],
					"numoutlets" : 0,
					"background" : 1,
					"patching_rect" : [ 5.0, 5.0, 469.0, 52.0 ],
					"id" : "obj-6",
					"grad1" : [ 0.27, 0.35, 0.47, 1.0 ]
				}

			}
, 			{
				"box" : 				{
					"maxclass" : "panel",
					"varname" : "autohelp_see_panel",
					"border" : 2,
					"numinlets" : 1,
					"numoutlets" : 0,
					"background" : 1,
					"bordercolor" : [ 0.5, 0.5, 0.5, 0.75 ],
					"bgcolor" : [ 0.85, 0.85, 0.85, 0.75 ],
					"patching_rect" : [ 332.0, 273.0, 140.0, 50.0 ],
					"id" : "obj-9"
				}

			}
 ],
		"lines" : [ 			{
				"patchline" : 				{
					"source" : [ "obj-17", 0 ],
					"destination" : [ "obj-13", 0 ],
					"hidden" : 0
				}

			}
, 			{
				"patchline" : 				{
					"source" : [ "obj-14", 0 ],
					"destination" : [ "obj-17", 0 ],
					"hidden" : 0
				}

			}
, 			{
				"patchline" : 				{
					"source" : [ "obj-15", 0 ],
					"destination" : [ "obj-17", 0 ],
					"hidden" : 0
				}

			}
, 			{
				"patchline" : 				{
					"source" : [ "obj-16", 0 ],
					"destination" : [ "obj-17", 0 ],
					"hidden" : 0
				}

			}
, 			{
				"patchline" : 				{
					"source" : [ "obj-28", 0 ],
					"destination" : [ "obj-27", 0 ],
					"hidden" : 0
				}

			}
, 			{
				"patchline" : 				{
					"source" : [ "obj-29", 0 ],
					"destination" : [ "obj-28", 0 ],
					"hidden" : 0
				}

			}
, 			{
				"patchline" : 				{
					"source" : [ "obj-26", 0 ],
					"destination" : [ "obj-29", 0 ],
					"hidden" : 0
				}

			}
, 			{
				"patchline" : 				{
					"source" : [ "obj-22", 0 ],
					"destination" : [ "obj-21", 0 ],
					"hidden" : 0
				}

			}
, 			{
				"patchline" : 				{
					"source" : [ "obj-25", 0 ],
					"destination" : [ "obj-22", 0 ],
					"hidden" : 0
				}

			}
, 			{
				"patchline" : 				{
					"source" : [ "obj-24", 0 ],
					"destination" : [ "obj-22", 0 ],
					"hidden" : 0
				}

			}
, 			{
				"patchline" : 				{
					"source" : [ "obj-23", 0 ],
					"destination" : [ "obj-22", 0 ],
					"hidden" : 0
				}

			}
, 			{
				"patchline" : 				{
					"source" : [ "obj-19", 0 ],
					"destination" : [ "obj-22", 0 ],
					"hidden" : 0
				}

			}
 ]
	}

}
