{
	"patcher" : 	{
		"rect" : [ 26.0, 48.0, 639.0, 530.0 ],
		"bglocked" : 0,
		"defrect" : [ 26.0, 48.0, 639.0, 530.0 ],
		"openrect" : [ 0.0, 0.0, 0.0, 0.0 ],
		"openinpresentation" : 0,
		"default_fontsize" : 10.0,
		"default_fontface" : 0,
		"default_fontname" : "Arial",
		"gridonopen" : 0,
		"gridsize" : [ 15.0, 15.0 ],
		"gridsnaponopen" : 0,
		"toolbarvisible" : 1,
		"boxanimatetime" : 200,
		"imprint" : 0,
		"metadata" : [  ],
		"boxes" : [ 			{
				"box" : 				{
					"maxclass" : "preset",
					"spacing" : 2,
					"bubblesize" : 8,
					"outlettype" : [ "preset", "int", "preset", "int" ],
					"numinlets" : 1,
					"patching_rect" : [ 460.0, 138.0, 48.0, 18.0 ],
					"margin" : 5,
					"id" : "obj-1",
					"numoutlets" : 4,
					"preset_data" : [ 						{
							"number" : 1,
							"data" : [ 5, "obj-17", "toggle", "int", 0, 5, "obj-20", "flonum", "float", 0.07, 5, "obj-21", "flonum", "float", 0.58, 7, "obj-25", "swatch", "list", 222, 156, 0 ]
						}
, 						{
							"number" : 2,
							"data" : [ 5, "obj-17", "toggle", "int", 1, 5, "obj-20", "flonum", "float", 0.15, 5, "obj-21", "flonum", "float", 0.62, 7, "obj-25", "swatch", "list", 104, 0, 120 ]
						}
, 						{
							"number" : 3,
							"data" : [ 5, "obj-17", "toggle", "int", 0, 5, "obj-20", "flonum", "float", 0.48, 5, "obj-21", "flonum", "float", 0.95, 7, "obj-25", "swatch", "list", 35, 204, 0 ]
						}
, 						{
							"number" : 4,
							"data" : [ 5, "obj-17", "toggle", "int", 0, 5, "obj-20", "flonum", "float", 0.33, 5, "obj-21", "flonum", "float", 0.03, 7, "obj-25", "swatch", "list", 0, 188, 238 ]
						}
 ]
				}

			}
, 			{
				"box" : 				{
					"maxclass" : "newobj",
					"text" : "autohelp",
					"fontsize" : 10.0,
					"hidden" : 1,
					"numinlets" : 1,
					"patching_rect" : [ 480.0, 460.0, 55.0, 20.0 ],
					"id" : "obj-5",
					"fontname" : "Arial",
					"numoutlets" : 0
				}

			}
, 			{
				"box" : 				{
					"maxclass" : "jit.fpsgui",
					"outlettype" : [ "" ],
					"fontsize" : 10.0,
					"numinlets" : 1,
					"patching_rect" : [ 23.0, 482.0, 80.0, 33.333271 ],
					"id" : "obj-14",
					"fontname" : "Arial",
					"numoutlets" : 1
				}

			}
, 			{
				"box" : 				{
					"maxclass" : "newobj",
					"text" : "loadmess 1",
					"outlettype" : [ "" ],
					"fontsize" : 10.0,
					"hidden" : 1,
					"numinlets" : 1,
					"patching_rect" : [ 449.0, 124.0, 70.0, 20.0 ],
					"id" : "obj-15",
					"fontname" : "Arial",
					"numoutlets" : 1
				}

			}
, 			{
				"box" : 				{
					"maxclass" : "toggle",
					"outlettype" : [ "int" ],
					"numinlets" : 1,
					"patching_rect" : [ 564.5, 166.0, 20.0, 20.0 ],
					"id" : "obj-17",
					"numoutlets" : 1
				}

			}
, 			{
				"box" : 				{
					"maxclass" : "message",
					"text" : "mode $1",
					"outlettype" : [ "" ],
					"fontsize" : 10.0,
					"numinlets" : 2,
					"patching_rect" : [ 564.5, 196.0, 56.0, 18.0 ],
					"id" : "obj-18",
					"fontname" : "Arial",
					"numoutlets" : 1
				}

			}
, 			{
				"box" : 				{
					"maxclass" : "flonum",
					"outlettype" : [ "float", "bang" ],
					"triscale" : 0.9,
					"fontsize" : 10.0,
					"minimum" : 0.0,
					"numinlets" : 1,
					"patching_rect" : [ 512.5, 166.0, 50.0, 20.0 ],
					"id" : "obj-20",
					"fontname" : "Arial",
					"numoutlets" : 2
				}

			}
, 			{
				"box" : 				{
					"maxclass" : "flonum",
					"outlettype" : [ "float", "bang" ],
					"triscale" : 0.9,
					"fontsize" : 10.0,
					"minimum" : 0.0,
					"numinlets" : 1,
					"patching_rect" : [ 460.0, 166.0, 50.0, 20.0 ],
					"id" : "obj-21",
					"fontname" : "Arial",
					"numoutlets" : 2
				}

			}
, 			{
				"box" : 				{
					"maxclass" : "message",
					"text" : "tol $1",
					"outlettype" : [ "" ],
					"fontsize" : 10.0,
					"numinlets" : 2,
					"patching_rect" : [ 512.5, 196.0, 39.0, 18.0 ],
					"id" : "obj-22",
					"fontname" : "Arial",
					"numoutlets" : 1
				}

			}
, 			{
				"box" : 				{
					"maxclass" : "message",
					"text" : "lum $1",
					"outlettype" : [ "" ],
					"fontsize" : 10.0,
					"numinlets" : 2,
					"patching_rect" : [ 460.0, 196.0, 45.0, 18.0 ],
					"id" : "obj-23",
					"fontname" : "Arial",
					"numoutlets" : 1
				}

			}
, 			{
				"box" : 				{
					"maxclass" : "swatch",
					"outlettype" : [ "", "float" ],
					"numinlets" : 3,
					"patching_rect" : [ 328.0, 158.0, 128.0, 32.0 ],
					"id" : "obj-25",
					"numoutlets" : 2
				}

			}
, 			{
				"box" : 				{
					"maxclass" : "message",
					"text" : "glow $1 $2 $3",
					"outlettype" : [ "" ],
					"fontsize" : 10.0,
					"numinlets" : 2,
					"patching_rect" : [ 328.0, 196.0, 83.0, 18.0 ],
					"id" : "obj-26",
					"fontname" : "Arial",
					"numoutlets" : 1
				}

			}
, 			{
				"box" : 				{
					"maxclass" : "comment",
					"text" : "supports: 4-plane char.",
					"fontsize" : 10.0,
					"numinlets" : 1,
					"patching_rect" : [ 193.0, 177.0, 127.0, 20.0 ],
					"id" : "obj-28",
					"fontname" : "Arial",
					"numoutlets" : 0
				}

			}
, 			{
				"box" : 				{
					"maxclass" : "jit.pwindow",
					"background" : 1,
					"outlettype" : [ "", "" ],
					"numinlets" : 1,
					"patching_rect" : [ 25.0, 270.0, 80.0, 60.0 ],
					"id" : "obj-29",
					"numoutlets" : 2
				}

			}
, 			{
				"box" : 				{
					"maxclass" : "jit.pwindow",
					"background" : 1,
					"outlettype" : [ "", "" ],
					"numinlets" : 1,
					"patching_rect" : [ 111.0, 270.0, 320.0, 240.0 ],
					"id" : "obj-30",
					"numoutlets" : 2
				}

			}
, 			{
				"box" : 				{
					"maxclass" : "newobj",
					"text" : "jit.fluoride",
					"outlettype" : [ "jit_matrix", "" ],
					"fontsize" : 10.0,
					"numinlets" : 1,
					"patching_rect" : [ 111.0, 239.0, 58.0, 20.0 ],
					"id" : "obj-37",
					"fontname" : "Arial",
					"numoutlets" : 2
				}

			}
, 			{
				"box" : 				{
					"maxclass" : "comment",
					"text" : "try some presets.",
					"fontsize" : 10.0,
					"numinlets" : 1,
					"patching_rect" : [ 508.0, 137.0, 99.0, 20.0 ],
					"id" : "obj-39",
					"fontname" : "Arial",
					"numoutlets" : 0
				}

			}
, 			{
				"box" : 				{
					"maxclass" : "message",
					"text" : "stop",
					"outlettype" : [ "" ],
					"fontsize" : 10.0,
					"numinlets" : 2,
					"patching_rect" : [ 129.0, 151.0, 32.5, 18.0 ],
					"id" : "obj-16",
					"fontname" : "Arial",
					"numoutlets" : 1
				}

			}
, 			{
				"box" : 				{
					"maxclass" : "flonum",
					"outlettype" : [ "float", "bang" ],
					"triscale" : 0.9,
					"fontsize" : 10.0,
					"numinlets" : 1,
					"patching_rect" : [ 163.0, 124.0, 50.0, 20.0 ],
					"id" : "obj-7",
					"fontname" : "Arial",
					"numoutlets" : 2
				}

			}
, 			{
				"box" : 				{
					"maxclass" : "message",
					"text" : "rate $1",
					"outlettype" : [ "" ],
					"fontsize" : 10.0,
					"numinlets" : 2,
					"patching_rect" : [ 163.0, 151.0, 47.0, 18.0 ],
					"id" : "obj-8",
					"fontname" : "Arial",
					"numoutlets" : 1
				}

			}
, 			{
				"box" : 				{
					"maxclass" : "message",
					"text" : "read",
					"outlettype" : [ "" ],
					"fontsize" : 10.0,
					"numinlets" : 2,
					"patching_rect" : [ 93.0, 151.0, 34.0, 18.0 ],
					"id" : "obj-9",
					"fontname" : "Arial",
					"numoutlets" : 1
				}

			}
, 			{
				"box" : 				{
					"maxclass" : "number",
					"outlettype" : [ "int", "bang" ],
					"triscale" : 0.9,
					"fontsize" : 10.0,
					"numinlets" : 1,
					"patching_rect" : [ 69.0, 123.0, 50.0, 20.0 ],
					"id" : "obj-10",
					"fontname" : "Arial",
					"numoutlets" : 2
				}

			}
, 			{
				"box" : 				{
					"maxclass" : "toggle",
					"outlettype" : [ "int" ],
					"numinlets" : 1,
					"patching_rect" : [ 25.0, 123.0, 20.0, 20.0 ],
					"id" : "obj-31",
					"numoutlets" : 1
				}

			}
, 			{
				"box" : 				{
					"maxclass" : "newobj",
					"text" : "qmetro 30",
					"outlettype" : [ "bang" ],
					"fontsize" : 10.0,
					"numinlets" : 2,
					"patching_rect" : [ 25.0, 151.0, 63.0, 20.0 ],
					"id" : "obj-32",
					"fontname" : "Arial",
					"numoutlets" : 1
				}

			}
, 			{
				"box" : 				{
					"maxclass" : "newobj",
					"text" : "jit.qt.movie 320 240",
					"outlettype" : [ "jit_matrix", "" ],
					"fontsize" : 10.0,
					"numinlets" : 1,
					"patching_rect" : [ 25.0, 183.0, 111.0, 20.0 ],
					"id" : "obj-50",
					"fontname" : "Arial",
					"numoutlets" : 2
				}

			}
, 			{
				"box" : 				{
					"maxclass" : "comment",
					"varname" : "autohelp_top_title",
					"text" : "jit.fluoride",
					"fontface" : 3,
					"fontsize" : 18.0,
					"frgb" : [ 0.27, 0.35, 0.47, 1.0 ],
					"numinlets" : 1,
					"patching_rect" : [ 10.0, 8.0, 485.0, 30.0 ],
					"id" : "obj-11",
					"fontname" : "Arial",
					"numoutlets" : 0,
					"textcolor" : [ 0.27, 0.35, 0.47, 1.0 ]
				}

			}
, 			{
				"box" : 				{
					"maxclass" : "comment",
					"varname" : "autohelp_top_digest",
					"text" : "Neon glow",
					"fontsize" : 11.0,
					"frgb" : [ 0.27, 0.35, 0.47, 1.0 ],
					"numinlets" : 1,
					"patching_rect" : [ 10.0, 36.0, 485.0, 21.0 ],
					"id" : "obj-12",
					"fontname" : "Arial",
					"numoutlets" : 0,
					"textcolor" : [ 0.27, 0.35, 0.47, 1.0 ]
				}

			}
, 			{
				"box" : 				{
					"maxclass" : "comment",
					"varname" : "autohelp_top_description",
					"text" : "The jit.fluoride object does a cheap approximation of a neon glow effect. Individual cell values fade into a specified color as they approach a luminance value. Cell values greater than the luminance value fade to black. Values outside of a tolerance boundary are passed. The jit.fluoride object can work on an input matrix in either greyscale or color, depending on the setting of its mode attribute.",
					"linecount" : 4,
					"fontsize" : 10.0,
					"numinlets" : 1,
					"patching_rect" : [ 10.0, 57.0, 613.0, 60.0 ],
					"id" : "obj-13",
					"fontname" : "Arial",
					"numoutlets" : 0
				}

			}
, 			{
				"box" : 				{
					"maxclass" : "textbutton",
					"varname" : "autohelp_top_ref",
					"outlettype" : [ "int", "", "int" ],
					"fontlink" : 1,
					"bgoncolor" : [ 0.0, 0.0, 0.0, 0.0 ],
					"bordercolor" : [ 0.0, 0.0, 0.0, 0.0 ],
					"fontface" : 3,
					"fontsize" : 11.0,
					"textovercolor" : [ 0.4, 0.5, 0.65, 1.0 ],
					"bgovercolor" : [ 0.0, 0.0, 0.0, 0.0 ],
					"presentation_rect" : [ 0.0, 0.0, 164.697418, 14.66663 ],
					"spacing_x" : 0.0,
					"spacing_y" : 0.0,
					"numinlets" : 1,
					"bgcolor" : [ 0.0, 0.0, 0.0, 0.0 ],
					"patching_rect" : [ 335.302582, 22.0, 164.697418, 14.66663 ],
					"bgoveroncolor" : [ 0.0, 0.0, 0.0, 0.0 ],
					"id" : "obj-19",
					"fontname" : "Arial",
					"underline" : 1,
					"numoutlets" : 3,
					"text" : "open jit.fluoride reference",
					"textcolor" : [ 0.322, 0.41, 0.542, 1.0 ],
					"textoncolor" : [ 0.27, 0.35, 0.47, 1.0 ]
				}

			}
, 			{
				"box" : 				{
					"maxclass" : "comment",
					"varname" : "autohelp_see_title",
					"text" : "See Also:",
					"fontface" : 1,
					"fontsize" : 10.0,
					"numinlets" : 1,
					"patching_rect" : [ 485.0, 464.0, 100.0, 20.0 ],
					"id" : "obj-27",
					"fontname" : "Arial",
					"numoutlets" : 0
				}

			}
, 			{
				"box" : 				{
					"maxclass" : "umenu",
					"varname" : "autohelp_see_menu",
					"outlettype" : [ "int", "", "" ],
					"fontsize" : 10.0,
					"items" : [ "(Objects:)", ",", "jit.chromakey", ",", "jit.lumakey" ],
					"types" : [  ],
					"numinlets" : 1,
					"patching_rect" : [ 485.0, 484.0, 130.0, 20.0 ],
					"id" : "obj-33",
					"fontname" : "Arial",
					"numoutlets" : 3
				}

			}
, 			{
				"box" : 				{
					"maxclass" : "panel",
					"varname" : "autohelp_top_panel",
					"background" : 1,
					"mode" : 1,
					"numinlets" : 1,
					"patching_rect" : [ 5.0, 5.0, 495.0, 52.0 ],
					"grad1" : [ 0.86, 0.86, 0.75, 1.0 ],
					"id" : "obj-24",
					"numoutlets" : 0,
					"grad2" : [ 0.78, 0.84, 0.86, 0.7 ]
				}

			}
, 			{
				"box" : 				{
					"maxclass" : "panel",
					"varname" : "autohelp_see_panel",
					"background" : 1,
					"bordercolor" : [ 0.5, 0.5, 0.5, 0.75 ],
					"numinlets" : 1,
					"bgcolor" : [ 0.85, 0.85, 0.85, 0.75 ],
					"patching_rect" : [ 480.0, 460.0, 140.0, 50.0 ],
					"border" : 2,
					"id" : "obj-34",
					"numoutlets" : 0
				}

			}
 ],
		"lines" : [ 			{
				"patchline" : 				{
					"source" : [ "obj-50", 0 ],
					"destination" : [ "obj-29", 0 ],
					"hidden" : 0
				}

			}
, 			{
				"patchline" : 				{
					"source" : [ "obj-50", 0 ],
					"destination" : [ "obj-37", 0 ],
					"hidden" : 0,
					"midpoints" : [ 34.5, 215.0, 120.5, 215.0 ]
				}

			}
, 			{
				"patchline" : 				{
					"source" : [ "obj-7", 0 ],
					"destination" : [ "obj-8", 0 ],
					"hidden" : 0
				}

			}
, 			{
				"patchline" : 				{
					"source" : [ "obj-10", 0 ],
					"destination" : [ "obj-32", 1 ],
					"hidden" : 0
				}

			}
, 			{
				"patchline" : 				{
					"source" : [ "obj-8", 0 ],
					"destination" : [ "obj-50", 0 ],
					"hidden" : 0,
					"midpoints" : [ 172.5, 174.0, 34.5, 174.0 ]
				}

			}
, 			{
				"patchline" : 				{
					"source" : [ "obj-16", 0 ],
					"destination" : [ "obj-50", 0 ],
					"hidden" : 0,
					"midpoints" : [ 138.5, 174.0, 34.5, 174.0 ]
				}

			}
, 			{
				"patchline" : 				{
					"source" : [ "obj-9", 0 ],
					"destination" : [ "obj-50", 0 ],
					"hidden" : 0,
					"midpoints" : [ 102.5, 174.0, 34.5, 174.0 ]
				}

			}
, 			{
				"patchline" : 				{
					"source" : [ "obj-32", 0 ],
					"destination" : [ "obj-50", 0 ],
					"hidden" : 0
				}

			}
, 			{
				"patchline" : 				{
					"source" : [ "obj-31", 0 ],
					"destination" : [ "obj-32", 0 ],
					"hidden" : 0
				}

			}
, 			{
				"patchline" : 				{
					"source" : [ "obj-25", 0 ],
					"destination" : [ "obj-26", 0 ],
					"hidden" : 0
				}

			}
, 			{
				"patchline" : 				{
					"source" : [ "obj-15", 0 ],
					"destination" : [ "obj-1", 0 ],
					"hidden" : 1
				}

			}
, 			{
				"patchline" : 				{
					"source" : [ "obj-30", 0 ],
					"destination" : [ "obj-14", 0 ],
					"hidden" : 0,
					"midpoints" : [ 120.5, 517.0, 106.0, 517.0, 106.0, 476.0, 32.5, 476.0 ]
				}

			}
, 			{
				"patchline" : 				{
					"source" : [ "obj-37", 0 ],
					"destination" : [ "obj-30", 0 ],
					"hidden" : 0
				}

			}
, 			{
				"patchline" : 				{
					"source" : [ "obj-26", 0 ],
					"destination" : [ "obj-37", 0 ],
					"hidden" : 0,
					"midpoints" : [ 337.5, 229.0, 120.5, 229.0 ]
				}

			}
, 			{
				"patchline" : 				{
					"source" : [ "obj-23", 0 ],
					"destination" : [ "obj-37", 0 ],
					"hidden" : 0,
					"midpoints" : [ 469.5, 229.0, 120.5, 229.0 ]
				}

			}
, 			{
				"patchline" : 				{
					"source" : [ "obj-22", 0 ],
					"destination" : [ "obj-37", 0 ],
					"hidden" : 0,
					"midpoints" : [ 522.0, 229.0, 120.5, 229.0 ]
				}

			}
, 			{
				"patchline" : 				{
					"source" : [ "obj-18", 0 ],
					"destination" : [ "obj-37", 0 ],
					"hidden" : 0,
					"midpoints" : [ 574.0, 229.0, 120.5, 229.0 ]
				}

			}
, 			{
				"patchline" : 				{
					"source" : [ "obj-1", 0 ],
					"destination" : [ "obj-25", 0 ],
					"hidden" : 1
				}

			}
, 			{
				"patchline" : 				{
					"source" : [ "obj-1", 0 ],
					"destination" : [ "obj-21", 0 ],
					"hidden" : 1
				}

			}
, 			{
				"patchline" : 				{
					"source" : [ "obj-21", 0 ],
					"destination" : [ "obj-23", 0 ],
					"hidden" : 0
				}

			}
, 			{
				"patchline" : 				{
					"source" : [ "obj-1", 0 ],
					"destination" : [ "obj-20", 0 ],
					"hidden" : 1
				}

			}
, 			{
				"patchline" : 				{
					"source" : [ "obj-20", 0 ],
					"destination" : [ "obj-22", 0 ],
					"hidden" : 0
				}

			}
, 			{
				"patchline" : 				{
					"source" : [ "obj-1", 0 ],
					"destination" : [ "obj-17", 0 ],
					"hidden" : 1
				}

			}
, 			{
				"patchline" : 				{
					"source" : [ "obj-17", 0 ],
					"destination" : [ "obj-18", 0 ],
					"hidden" : 0
				}

			}
 ]
	}

}
