{
	"patcher" : 	{
		"rect" : [ 35.0, 54.0, 679.0, 633.0 ],
		"bglocked" : 0,
		"defrect" : [ 35.0, 54.0, 679.0, 633.0 ],
		"openrect" : [ 0.0, 0.0, 0.0, 0.0 ],
		"openinpresentation" : 0,
		"default_fontsize" : 10.0,
		"default_fontface" : 0,
		"default_fontname" : "Arial",
		"gridonopen" : 0,
		"gridsize" : [ 15.0, 15.0 ],
		"gridsnaponopen" : 0,
		"toolbarvisible" : 1,
		"boxanimatetime" : 200,
		"imprint" : 0,
		"metadata" : [  ],
		"boxes" : [ 			{
				"box" : 				{
					"maxclass" : "newobj",
					"text" : "autohelp",
					"fontsize" : 10.0,
					"hidden" : 1,
					"numinlets" : 1,
					"patching_rect" : [ 525.0, 568.0, 55.0, 20.0 ],
					"id" : "obj-8",
					"fontname" : "Arial",
					"numoutlets" : 0
				}

			}
, 			{
				"box" : 				{
					"maxclass" : "jit.fpsgui",
					"outlettype" : [ "" ],
					"fontsize" : 10.0,
					"numinlets" : 1,
					"patching_rect" : [ 59.0, 587.0, 80.0, 33.333271 ],
					"id" : "obj-17",
					"fontname" : "Arial",
					"numoutlets" : 1
				}

			}
, 			{
				"box" : 				{
					"maxclass" : "comment",
					"text" : "For all dimensions except the concat dimension, the truncate message truncates the right inputs dimensions to the left input's dimensions if the right dimensions are greater than the left",
					"linecount" : 5,
					"fontsize" : 10.0,
					"numinlets" : 1,
					"patching_rect" : [ 452.0, 105.0, 214.0, 73.0 ],
					"id" : "obj-18",
					"fontname" : "Arial",
					"numoutlets" : 0
				}

			}
, 			{
				"box" : 				{
					"maxclass" : "toggle",
					"outlettype" : [ "int" ],
					"numinlets" : 1,
					"patching_rect" : [ 22.0, 194.0, 20.0, 20.0 ],
					"id" : "obj-19",
					"numoutlets" : 1
				}

			}
, 			{
				"box" : 				{
					"maxclass" : "message",
					"text" : "truncate $1",
					"outlettype" : [ "" ],
					"fontsize" : 10.0,
					"numinlets" : 2,
					"patching_rect" : [ 22.0, 222.0, 67.0, 18.0 ],
					"id" : "obj-20",
					"fontname" : "Arial",
					"numoutlets" : 1
				}

			}
, 			{
				"box" : 				{
					"maxclass" : "message",
					"text" : "200 120",
					"outlettype" : [ "" ],
					"fontsize" : 10.0,
					"numinlets" : 2,
					"patching_rect" : [ 528.0, 389.0, 101.0, 18.0 ],
					"id" : "obj-21",
					"fontname" : "Arial",
					"numoutlets" : 1
				}

			}
, 			{
				"box" : 				{
					"maxclass" : "message",
					"text" : "char",
					"outlettype" : [ "" ],
					"fontsize" : 10.0,
					"numinlets" : 2,
					"patching_rect" : [ 465.0, 389.0, 60.0, 18.0 ],
					"id" : "obj-22",
					"fontname" : "Arial",
					"numoutlets" : 1
				}

			}
, 			{
				"box" : 				{
					"maxclass" : "message",
					"text" : "4",
					"outlettype" : [ "" ],
					"fontsize" : 10.0,
					"numinlets" : 2,
					"patching_rect" : [ 402.0, 389.0, 60.0, 18.0 ],
					"id" : "obj-23",
					"fontname" : "Arial",
					"numoutlets" : 1
				}

			}
, 			{
				"box" : 				{
					"maxclass" : "newobj",
					"text" : "route planecount type dim",
					"outlettype" : [ "", "", "", "" ],
					"fontsize" : 10.0,
					"numinlets" : 1,
					"patching_rect" : [ 402.0, 359.0, 199.0, 20.0 ],
					"id" : "obj-26",
					"fontname" : "Arial",
					"numoutlets" : 4
				}

			}
, 			{
				"box" : 				{
					"maxclass" : "newobj",
					"text" : "jit.matrixinfo",
					"outlettype" : [ "" ],
					"fontsize" : 10.0,
					"numinlets" : 1,
					"patching_rect" : [ 402.0, 333.0, 72.0, 20.0 ],
					"id" : "obj-28",
					"fontname" : "Arial",
					"numoutlets" : 1
				}

			}
, 			{
				"box" : 				{
					"maxclass" : "message",
					"text" : "getdim",
					"outlettype" : [ "" ],
					"fontsize" : 10.0,
					"numinlets" : 2,
					"patching_rect" : [ 448.0, 210.0, 45.0, 18.0 ],
					"id" : "obj-29",
					"fontname" : "Arial",
					"numoutlets" : 1
				}

			}
, 			{
				"box" : 				{
					"maxclass" : "newobj",
					"text" : "loadbang",
					"outlettype" : [ "bang" ],
					"fontsize" : 10.0,
					"hidden" : 1,
					"numinlets" : 1,
					"patching_rect" : [ 330.0, 110.0, 56.0, 20.0 ],
					"id" : "obj-30",
					"fontname" : "Arial",
					"numoutlets" : 1
				}

			}
, 			{
				"box" : 				{
					"maxclass" : "toggle",
					"outlettype" : [ "int" ],
					"numinlets" : 1,
					"patching_rect" : [ 178.0, 194.0, 20.0, 20.0 ],
					"id" : "obj-31",
					"numoutlets" : 1
				}

			}
, 			{
				"box" : 				{
					"maxclass" : "message",
					"text" : "mode $1",
					"outlettype" : [ "" ],
					"fontsize" : 10.0,
					"numinlets" : 2,
					"patching_rect" : [ 178.0, 222.0, 54.0, 18.0 ],
					"id" : "obj-32",
					"fontname" : "Arial",
					"numoutlets" : 1
				}

			}
, 			{
				"box" : 				{
					"maxclass" : "toggle",
					"outlettype" : [ "int" ],
					"numinlets" : 1,
					"patching_rect" : [ 93.0, 194.0, 20.0, 20.0 ],
					"id" : "obj-33",
					"numoutlets" : 1
				}

			}
, 			{
				"box" : 				{
					"maxclass" : "message",
					"text" : "autoclear $1",
					"outlettype" : [ "" ],
					"fontsize" : 10.0,
					"numinlets" : 2,
					"patching_rect" : [ 93.0, 222.0, 72.0, 18.0 ],
					"id" : "obj-34",
					"fontname" : "Arial",
					"numoutlets" : 1
				}

			}
, 			{
				"box" : 				{
					"maxclass" : "umenu",
					"outlettype" : [ "int", "", "" ],
					"fontsize" : 10.0,
					"items" : [ 0, "-", "horizontal", "(dim[0])", ",", 1, "-", "vertical", "(dim[1])", ",", 2, "-", "depth", "(dim[2])", ",", 3, "-", "dim[3]", ",", 4, "-", "dim[4]", ",", 5, "-", "dim[5]", ",", 6, "-", "dim[6]", ",", 7, "-", "dim[7]", ",", 8, "-", "dim[8]", ",", "etc." ],
					"types" : [  ],
					"numinlets" : 1,
					"patching_rect" : [ 497.0, 186.0, 143.0, 20.0 ],
					"id" : "obj-35",
					"fontname" : "Arial",
					"numoutlets" : 3
				}

			}
, 			{
				"box" : 				{
					"maxclass" : "number",
					"outlettype" : [ "int", "bang" ],
					"triscale" : 0.9,
					"fontsize" : 10.0,
					"numinlets" : 1,
					"patching_rect" : [ 372.0, 170.0, 50.0, 20.0 ],
					"id" : "obj-36",
					"fontname" : "Arial",
					"numoutlets" : 2
				}

			}
, 			{
				"box" : 				{
					"maxclass" : "newobj",
					"text" : "pak dim 40 40",
					"outlettype" : [ "" ],
					"fontsize" : 10.0,
					"numinlets" : 3,
					"patching_rect" : [ 267.0, 194.0, 124.0, 20.0 ],
					"id" : "obj-37",
					"fontname" : "Arial",
					"numoutlets" : 1
				}

			}
, 			{
				"box" : 				{
					"maxclass" : "newobj",
					"text" : "print",
					"fontsize" : 10.0,
					"numinlets" : 1,
					"patching_rect" : [ 267.0, 290.0, 31.0, 20.0 ],
					"id" : "obj-38",
					"fontname" : "Arial",
					"numoutlets" : 0
				}

			}
, 			{
				"box" : 				{
					"maxclass" : "message",
					"text" : "concatdim $1",
					"outlettype" : [ "" ],
					"fontsize" : 10.0,
					"numinlets" : 2,
					"patching_rect" : [ 497.0, 210.0, 79.0, 18.0 ],
					"id" : "obj-39",
					"fontname" : "Arial",
					"numoutlets" : 1
				}

			}
, 			{
				"box" : 				{
					"maxclass" : "number",
					"outlettype" : [ "int", "bang" ],
					"triscale" : 0.9,
					"fontsize" : 10.0,
					"numinlets" : 1,
					"patching_rect" : [ 319.5, 170.0, 50.0, 20.0 ],
					"id" : "obj-40",
					"fontname" : "Arial",
					"numoutlets" : 2
				}

			}
, 			{
				"box" : 				{
					"maxclass" : "newobj",
					"text" : "qmetro 30",
					"outlettype" : [ "bang" ],
					"fontsize" : 10.0,
					"numinlets" : 2,
					"patching_rect" : [ 230.0, 108.0, 61.0, 20.0 ],
					"id" : "obj-41",
					"fontname" : "Arial",
					"numoutlets" : 1
				}

			}
, 			{
				"box" : 				{
					"maxclass" : "toggle",
					"outlettype" : [ "int" ],
					"numinlets" : 1,
					"patching_rect" : [ 230.0, 84.0, 20.0, 20.0 ],
					"id" : "obj-42",
					"numoutlets" : 1
				}

			}
, 			{
				"box" : 				{
					"maxclass" : "newobj",
					"text" : "jit.matrix 4 char 40 40 @thru 1",
					"outlettype" : [ "jit_matrix", "" ],
					"fontsize" : 10.0,
					"numinlets" : 1,
					"patching_rect" : [ 267.0, 224.0, 164.0, 20.0 ],
					"id" : "obj-43",
					"fontname" : "Arial",
					"numoutlets" : 2
				}

			}
, 			{
				"box" : 				{
					"maxclass" : "jit.pwindow",
					"background" : 1,
					"outlettype" : [ "", "" ],
					"numinlets" : 1,
					"patching_rect" : [ 59.0, 336.0, 320.0, 240.0 ],
					"id" : "obj-44",
					"numoutlets" : 2
				}

			}
, 			{
				"box" : 				{
					"maxclass" : "message",
					"text" : "read",
					"outlettype" : [ "" ],
					"fontsize" : 10.0,
					"numinlets" : 2,
					"patching_rect" : [ 293.0, 108.0, 34.0, 18.0 ],
					"id" : "obj-45",
					"fontname" : "Arial",
					"numoutlets" : 1
				}

			}
, 			{
				"box" : 				{
					"maxclass" : "newobj",
					"text" : "jit.qt.movie 160 120",
					"outlettype" : [ "jit_matrix", "" ],
					"fontsize" : 10.0,
					"numinlets" : 1,
					"patching_rect" : [ 230.0, 141.0, 109.0, 20.0 ],
					"id" : "obj-46",
					"fontname" : "Arial",
					"numoutlets" : 2
				}

			}
, 			{
				"box" : 				{
					"maxclass" : "newobj",
					"text" : "jit.concat",
					"outlettype" : [ "jit_matrix", "" ],
					"fontsize" : 10.0,
					"numinlets" : 2,
					"patching_rect" : [ 230.0, 264.0, 56.0, 20.0 ],
					"id" : "obj-47",
					"fontname" : "Arial",
					"numoutlets" : 2
				}

			}
, 			{
				"box" : 				{
					"maxclass" : "comment",
					"text" : "for a little extra speed leave autoclear off if you don't need it.",
					"linecount" : 2,
					"fontsize" : 10.0,
					"numinlets" : 1,
					"patching_rect" : [ 18.0, 251.0, 173.0, 33.0 ],
					"id" : "obj-48",
					"fontname" : "Arial",
					"numoutlets" : 0
				}

			}
, 			{
				"box" : 				{
					"maxclass" : "comment",
					"text" : "truncate and autoclear are enabled by default.",
					"linecount" : 2,
					"fontsize" : 10.0,
					"numinlets" : 1,
					"patching_rect" : [ 14.0, 155.0, 137.0, 33.0 ],
					"id" : "obj-49",
					"fontname" : "Arial",
					"numoutlets" : 0
				}

			}
, 			{
				"box" : 				{
					"maxclass" : "comment",
					"varname" : "autohelp_top_title",
					"text" : "jit.concat",
					"fontface" : 3,
					"fontsize" : 18.0,
					"frgb" : [ 0.27, 0.35, 0.47, 1.0 ],
					"numinlets" : 1,
					"patching_rect" : [ 10.0, 8.0, 485.0, 30.0 ],
					"id" : "obj-1",
					"fontname" : "Arial",
					"numoutlets" : 0,
					"textcolor" : [ 0.27, 0.35, 0.47, 1.0 ]
				}

			}
, 			{
				"box" : 				{
					"maxclass" : "comment",
					"varname" : "autohelp_top_digest",
					"text" : "Concatenate two matrices",
					"fontsize" : 11.0,
					"frgb" : [ 0.27, 0.35, 0.47, 1.0 ],
					"numinlets" : 1,
					"patching_rect" : [ 10.0, 36.0, 485.0, 21.0 ],
					"id" : "obj-2",
					"fontname" : "Arial",
					"numoutlets" : 0,
					"textcolor" : [ 0.27, 0.35, 0.47, 1.0 ]
				}

			}
, 			{
				"box" : 				{
					"maxclass" : "comment",
					"varname" : "autohelp_top_description",
					"text" : "The jit.concat object takes two matrices as input, and sends a single concatenated matrix out.",
					"fontsize" : 10.0,
					"numinlets" : 1,
					"patching_rect" : [ 10.0, 57.0, 495.0, 20.0 ],
					"id" : "obj-3",
					"fontname" : "Arial",
					"numoutlets" : 0
				}

			}
, 			{
				"box" : 				{
					"maxclass" : "textbutton",
					"varname" : "autohelp_top_ref",
					"outlettype" : [ "int", "", "int" ],
					"fontlink" : 1,
					"bgoncolor" : [ 0.0, 0.0, 0.0, 0.0 ],
					"bordercolor" : [ 0.0, 0.0, 0.0, 0.0 ],
					"fontface" : 3,
					"fontsize" : 11.0,
					"textovercolor" : [ 0.4, 0.5, 0.65, 1.0 ],
					"bgovercolor" : [ 0.0, 0.0, 0.0, 0.0 ],
					"presentation_rect" : [ 0.0, 0.0, 159.0401, 14.66663 ],
					"spacing_x" : 0.0,
					"spacing_y" : 0.0,
					"numinlets" : 1,
					"bgcolor" : [ 0.0, 0.0, 0.0, 0.0 ],
					"patching_rect" : [ 340.9599, 22.0, 159.0401, 14.66663 ],
					"bgoveroncolor" : [ 0.0, 0.0, 0.0, 0.0 ],
					"id" : "obj-4",
					"fontname" : "Arial",
					"underline" : 1,
					"numoutlets" : 3,
					"text" : "open jit.concat reference",
					"textcolor" : [ 0.361, 0.455, 0.596, 1.0 ],
					"textoncolor" : [ 0.27, 0.35, 0.47, 1.0 ]
				}

			}
, 			{
				"box" : 				{
					"maxclass" : "comment",
					"varname" : "autohelp_see_title",
					"text" : "See Also:",
					"fontface" : 1,
					"fontsize" : 10.0,
					"numinlets" : 1,
					"patching_rect" : [ 530.0, 572.0, 100.0, 20.0 ],
					"id" : "obj-6",
					"fontname" : "Arial",
					"numoutlets" : 0
				}

			}
, 			{
				"box" : 				{
					"maxclass" : "umenu",
					"varname" : "autohelp_see_menu",
					"outlettype" : [ "int", "", "" ],
					"fontsize" : 10.0,
					"items" : [ "(Objects:)", ",", "jit.demultiplex", ",", "jit.glue", ",", "jit.matrix", ",", "jit.multiplex", ",", "jit.scissors", ",", "jit.split" ],
					"types" : [  ],
					"numinlets" : 1,
					"patching_rect" : [ 530.0, 592.0, 130.0, 20.0 ],
					"id" : "obj-7",
					"fontname" : "Arial",
					"numoutlets" : 3
				}

			}
, 			{
				"box" : 				{
					"maxclass" : "panel",
					"varname" : "autohelp_top_panel",
					"background" : 1,
					"mode" : 1,
					"numinlets" : 1,
					"patching_rect" : [ 5.0, 5.0, 495.0, 52.0 ],
					"grad1" : [ 0.86, 0.86, 0.75, 1.0 ],
					"id" : "obj-5",
					"numoutlets" : 0,
					"grad2" : [ 0.78, 0.84, 0.86, 0.7 ]
				}

			}
, 			{
				"box" : 				{
					"maxclass" : "panel",
					"varname" : "autohelp_see_panel",
					"background" : 1,
					"bordercolor" : [ 0.5, 0.5, 0.5, 0.75 ],
					"numinlets" : 1,
					"bgcolor" : [ 0.85, 0.85, 0.85, 0.75 ],
					"patching_rect" : [ 525.0, 568.0, 140.0, 50.0 ],
					"border" : 2,
					"id" : "obj-9",
					"numoutlets" : 0
				}

			}
 ],
		"lines" : [ 			{
				"patchline" : 				{
					"source" : [ "obj-26", 2 ],
					"destination" : [ "obj-21", 1 ],
					"hidden" : 0,
					"midpoints" : [ 531.5, 384.0, 619.5, 384.0 ]
				}

			}
, 			{
				"patchline" : 				{
					"source" : [ "obj-26", 1 ],
					"destination" : [ "obj-22", 1 ],
					"hidden" : 0,
					"midpoints" : [ 471.5, 384.0, 515.5, 384.0 ]
				}

			}
, 			{
				"patchline" : 				{
					"source" : [ "obj-26", 0 ],
					"destination" : [ "obj-23", 1 ],
					"hidden" : 0,
					"midpoints" : [ 411.5, 384.0, 452.5, 384.0 ]
				}

			}
, 			{
				"patchline" : 				{
					"source" : [ "obj-47", 0 ],
					"destination" : [ "obj-44", 0 ],
					"hidden" : 0,
					"midpoints" : [ 239.5, 304.0, 68.5, 304.0 ]
				}

			}
, 			{
				"patchline" : 				{
					"source" : [ "obj-44", 0 ],
					"destination" : [ "obj-17", 0 ],
					"hidden" : 0
				}

			}
, 			{
				"patchline" : 				{
					"source" : [ "obj-30", 0 ],
					"destination" : [ "obj-19", 0 ],
					"hidden" : 1
				}

			}
, 			{
				"patchline" : 				{
					"source" : [ "obj-19", 0 ],
					"destination" : [ "obj-20", 0 ],
					"hidden" : 0,
					"midpoints" : [ 31.5, 215.0, 31.5, 218.0 ]
				}

			}
, 			{
				"patchline" : 				{
					"source" : [ "obj-30", 0 ],
					"destination" : [ "obj-33", 0 ],
					"hidden" : 1
				}

			}
, 			{
				"patchline" : 				{
					"source" : [ "obj-33", 0 ],
					"destination" : [ "obj-34", 0 ],
					"hidden" : 0
				}

			}
, 			{
				"patchline" : 				{
					"source" : [ "obj-31", 0 ],
					"destination" : [ "obj-32", 0 ],
					"hidden" : 0,
					"midpoints" : [ 187.5, 214.0, 187.5, 217.0 ]
				}

			}
, 			{
				"patchline" : 				{
					"source" : [ "obj-42", 0 ],
					"destination" : [ "obj-41", 0 ],
					"hidden" : 0
				}

			}
, 			{
				"patchline" : 				{
					"source" : [ "obj-41", 0 ],
					"destination" : [ "obj-46", 0 ],
					"hidden" : 0
				}

			}
, 			{
				"patchline" : 				{
					"source" : [ "obj-45", 0 ],
					"destination" : [ "obj-46", 0 ],
					"hidden" : 0,
					"midpoints" : [ 302.5, 135.0, 239.5, 135.0 ]
				}

			}
, 			{
				"patchline" : 				{
					"source" : [ "obj-46", 0 ],
					"destination" : [ "obj-47", 0 ],
					"hidden" : 0
				}

			}
, 			{
				"patchline" : 				{
					"source" : [ "obj-20", 0 ],
					"destination" : [ "obj-47", 0 ],
					"hidden" : 0,
					"midpoints" : [ 31.5, 244.0, 239.5, 244.0 ]
				}

			}
, 			{
				"patchline" : 				{
					"source" : [ "obj-32", 0 ],
					"destination" : [ "obj-47", 0 ],
					"hidden" : 0,
					"midpoints" : [ 187.5, 244.0, 239.5, 244.0 ]
				}

			}
, 			{
				"patchline" : 				{
					"source" : [ "obj-39", 0 ],
					"destination" : [ "obj-47", 0 ],
					"hidden" : 0,
					"midpoints" : [ 506.5, 261.0, 239.5, 261.0 ]
				}

			}
, 			{
				"patchline" : 				{
					"source" : [ "obj-34", 0 ],
					"destination" : [ "obj-47", 0 ],
					"hidden" : 0,
					"midpoints" : [ 102.5, 244.0, 239.5, 244.0 ]
				}

			}
, 			{
				"patchline" : 				{
					"source" : [ "obj-29", 0 ],
					"destination" : [ "obj-47", 0 ],
					"hidden" : 0,
					"midpoints" : [ 457.5, 261.0, 239.5, 261.0 ]
				}

			}
, 			{
				"patchline" : 				{
					"source" : [ "obj-43", 0 ],
					"destination" : [ "obj-47", 1 ],
					"hidden" : 0,
					"midpoints" : [ 276.5, 244.0, 276.5, 244.0 ]
				}

			}
, 			{
				"patchline" : 				{
					"source" : [ "obj-47", 1 ],
					"destination" : [ "obj-38", 0 ],
					"hidden" : 0
				}

			}
, 			{
				"patchline" : 				{
					"source" : [ "obj-46", 0 ],
					"destination" : [ "obj-43", 0 ],
					"hidden" : 0
				}

			}
, 			{
				"patchline" : 				{
					"source" : [ "obj-37", 0 ],
					"destination" : [ "obj-43", 0 ],
					"hidden" : 0
				}

			}
, 			{
				"patchline" : 				{
					"source" : [ "obj-40", 0 ],
					"destination" : [ "obj-37", 1 ],
					"hidden" : 0
				}

			}
, 			{
				"patchline" : 				{
					"source" : [ "obj-36", 0 ],
					"destination" : [ "obj-37", 2 ],
					"hidden" : 0,
					"midpoints" : [ 381.5, 191.0, 381.5, 191.0 ]
				}

			}
, 			{
				"patchline" : 				{
					"source" : [ "obj-47", 0 ],
					"destination" : [ "obj-28", 0 ],
					"hidden" : 0,
					"midpoints" : [ 239.5, 315.0, 411.5, 315.0 ]
				}

			}
, 			{
				"patchline" : 				{
					"source" : [ "obj-28", 0 ],
					"destination" : [ "obj-26", 0 ],
					"hidden" : 0
				}

			}
, 			{
				"patchline" : 				{
					"source" : [ "obj-35", 0 ],
					"destination" : [ "obj-39", 0 ],
					"hidden" : 0
				}

			}
 ]
	}

}
