{
	"patcher" : 	{
		"fileversion" : 1,
		"rect" : [ 29.0, 51.0, 572.0, 485.0 ],
		"bglocked" : 0,
		"defrect" : [ 29.0, 51.0, 572.0, 485.0 ],
		"openrect" : [ 0.0, 0.0, 0.0, 0.0 ],
		"openinpresentation" : 0,
		"default_fontsize" : 11.595187,
		"default_fontface" : 0,
		"default_fontname" : "Arial",
		"gridonopen" : 0,
		"gridsize" : [ 15.0, 15.0 ],
		"gridsnaponopen" : 0,
		"toolbarvisible" : 1,
		"boxanimatetime" : 200,
		"imprint" : 0,
		"metadata" : [  ],
		"boxes" : [ 			{
				"box" : 				{
					"maxclass" : "newobj",
					"text" : "autohelp",
					"patching_rect" : [ 418.0, 425.0, 55.0, 20.0 ],
					"id" : "obj-8",
					"numinlets" : 1,
					"fontname" : "Arial",
					"numoutlets" : 0,
					"fontsize" : 11.595187,
					"hidden" : 1
				}

			}
, 			{
				"box" : 				{
					"maxclass" : "jit.fpsgui",
					"patching_rect" : [ 316.0, 393.0, 80.0, 34.666664 ],
					"mode" : 3,
					"id" : "obj-17",
					"numinlets" : 1,
					"fontname" : "Arial",
					"numoutlets" : 2,
					"outlettype" : [ "", "" ],
					"fontsize" : 11.595187
				}

			}
, 			{
				"box" : 				{
					"maxclass" : "jit.fpsgui",
					"patching_rect" : [ 108.0, 393.0, 80.0, 34.666664 ],
					"mode" : 3,
					"id" : "obj-18",
					"numinlets" : 1,
					"fontname" : "Arial",
					"numoutlets" : 2,
					"outlettype" : [ "", "" ],
					"fontsize" : 11.595187
				}

			}
, 			{
				"box" : 				{
					"maxclass" : "umenu",
					"types" : [  ],
					"patching_rect" : [ 314.141388, 123.46875, 128.0, 20.0 ],
					"id" : "obj-19",
					"numinlets" : 1,
					"fontname" : "Arial",
					"numoutlets" : 3,
					"outlettype" : [ "int", "", "" ],
					"fontsize" : 11.595187,
					"items" : [ 0, "-", "horizontal", "(dim[0])", ",", 1, "-", "vertical", "(dim[1])", ",", 2, "-", "dim[2]", ",", 3, "-", "dim[3]", ",", 4, "-", "dim[4]", ",", 5, "-", "dim[5]", ",", 6, "-", "dim[6]", ",", 7, "-", "dim[7]", ",", 8, "-", "dim[8]", ",", "etc." ]
				}

			}
, 			{
				"box" : 				{
					"maxclass" : "number",
					"patching_rect" : [ 31.0, 124.6875, 50.0, 20.0 ],
					"id" : "obj-20",
					"numinlets" : 1,
					"fontname" : "Arial",
					"numoutlets" : 2,
					"triscale" : 0.9,
					"outlettype" : [ "int", "bang" ],
					"fontsize" : 11.595187
				}

			}
, 			{
				"box" : 				{
					"maxclass" : "message",
					"text" : "splitpoint $1",
					"patching_rect" : [ 31.0, 147.84375, 72.0, 18.0 ],
					"id" : "obj-21",
					"numinlets" : 2,
					"fontname" : "Arial",
					"numoutlets" : 1,
					"outlettype" : [ "" ],
					"fontsize" : 11.595187
				}

			}
, 			{
				"box" : 				{
					"maxclass" : "toggle",
					"patching_rect" : [ 98.259644, 99.09375, 20.0, 20.0 ],
					"id" : "obj-22",
					"numinlets" : 1,
					"numoutlets" : 1,
					"outlettype" : [ "int" ]
				}

			}
, 			{
				"box" : 				{
					"maxclass" : "message",
					"text" : "autoclear $1",
					"patching_rect" : [ 98.259644, 123.46875, 74.0, 18.0 ],
					"id" : "obj-23",
					"numinlets" : 2,
					"fontname" : "Arial",
					"numoutlets" : 1,
					"outlettype" : [ "" ],
					"fontsize" : 11.595187
				}

			}
, 			{
				"box" : 				{
					"maxclass" : "message",
					"text" : "splitdim $1",
					"patching_rect" : [ 314.141388, 149.0625, 66.0, 18.0 ],
					"id" : "obj-24",
					"numinlets" : 2,
					"fontname" : "Arial",
					"numoutlets" : 1,
					"outlettype" : [ "" ],
					"fontsize" : 11.595187
				}

			}
, 			{
				"box" : 				{
					"maxclass" : "toggle",
					"patching_rect" : [ 178.640106, 93.0, 20.0, 20.0 ],
					"id" : "obj-25",
					"numinlets" : 1,
					"numoutlets" : 1,
					"outlettype" : [ "int" ]
				}

			}
, 			{
				"box" : 				{
					"maxclass" : "newobj",
					"text" : "qmetro 30",
					"patching_rect" : [ 178.640106, 117.375, 63.0, 20.0 ],
					"id" : "obj-26",
					"numinlets" : 2,
					"fontname" : "Arial",
					"numoutlets" : 1,
					"outlettype" : [ "bang" ],
					"fontsize" : 11.595187
				}

			}
, 			{
				"box" : 				{
					"maxclass" : "message",
					"text" : "read",
					"patching_rect" : [ 245.712082, 117.375, 34.0, 18.0 ],
					"id" : "obj-27",
					"numinlets" : 2,
					"fontname" : "Arial",
					"numoutlets" : 1,
					"outlettype" : [ "" ],
					"fontsize" : 11.595187
				}

			}
, 			{
				"box" : 				{
					"maxclass" : "newobj",
					"text" : "jit.qt.movie 320 240",
					"patching_rect" : [ 178.640106, 146.625, 111.0, 20.0 ],
					"id" : "obj-28",
					"numinlets" : 1,
					"fontname" : "Arial",
					"numoutlets" : 2,
					"outlettype" : [ "jit_matrix", "" ],
					"fontsize" : 11.595187
				}

			}
, 			{
				"box" : 				{
					"maxclass" : "jit.pwindow",
					"patching_rect" : [ 316.0, 264.0, 160.0, 120.0 ],
					"id" : "obj-29",
					"numinlets" : 1,
					"numoutlets" : 2,
					"background" : 1,
					"outlettype" : [ "", "" ]
				}

			}
, 			{
				"box" : 				{
					"maxclass" : "jit.pwindow",
					"patching_rect" : [ 108.0, 264.0, 160.0, 120.0 ],
					"id" : "obj-30",
					"numinlets" : 1,
					"numoutlets" : 2,
					"background" : 1,
					"outlettype" : [ "", "" ]
				}

			}
, 			{
				"box" : 				{
					"maxclass" : "newobj",
					"text" : "jit.split",
					"patching_rect" : [ 179.0, 177.0, 42.0, 20.0 ],
					"id" : "obj-31",
					"numinlets" : 1,
					"fontname" : "Arial",
					"numoutlets" : 3,
					"outlettype" : [ "jit_matrix", "jit_matrix", "" ],
					"fontsize" : 11.595187
				}

			}
, 			{
				"box" : 				{
					"maxclass" : "comment",
					"text" : "the point BEFORE which the split will be made. in a dimension of 2, splitpoint 1 breaks it in half. splitpoint 1 is the default.",
					"linecount" : 8,
					"patching_rect" : [ 0.0, 183.0, 102.0, 113.0 ],
					"id" : "obj-32",
					"numinlets" : 1,
					"fontname" : "Arial",
					"numoutlets" : 0,
					"fontsize" : 11.595187
				}

			}
, 			{
				"box" : 				{
					"maxclass" : "comment",
					"varname" : "autohelp_top_title",
					"text" : "jit.split",
					"frgb" : [ 0.27, 0.35, 0.47, 1.0 ],
					"patching_rect" : [ 10.0, 8.0, 485.0, 30.0 ],
					"id" : "obj-1",
					"numinlets" : 1,
					"fontname" : "Arial",
					"textcolor" : [ 0.27, 0.35, 0.47, 1.0 ],
					"numoutlets" : 0,
					"fontface" : 3,
					"fontsize" : 20.871338
				}

			}
, 			{
				"box" : 				{
					"maxclass" : "comment",
					"varname" : "autohelp_top_digest",
					"text" : "Split a matrix into two matrices",
					"frgb" : [ 0.27, 0.35, 0.47, 1.0 ],
					"patching_rect" : [ 10.0, 36.0, 485.0, 21.0 ],
					"id" : "obj-2",
					"numinlets" : 1,
					"fontname" : "Arial",
					"textcolor" : [ 0.27, 0.35, 0.47, 1.0 ],
					"numoutlets" : 0,
					"fontsize" : 12.754705
				}

			}
, 			{
				"box" : 				{
					"maxclass" : "comment",
					"varname" : "autohelp_top_description",
					"text" : "The jit.split object takes a single matrix as input, divides it along a specified dimension at a specified point, outputs the two resulting matrices.",
					"linecount" : 2,
					"patching_rect" : [ 10.0, 57.0, 485.0, 33.0 ],
					"id" : "obj-3",
					"numinlets" : 1,
					"fontname" : "Arial",
					"numoutlets" : 0,
					"fontsize" : 11.595187
				}

			}
, 			{
				"box" : 				{
					"maxclass" : "textbutton",
					"varname" : "autohelp_top_ref",
					"spacing_y" : 0.0,
					"textoncolor" : [ 0.27, 0.35, 0.47, 1.0 ],
					"bgcolor" : [ 0.0, 0.0, 0.0, 0.0 ],
					"patching_rect" : [ 355.91452, 22.0, 144.08548, 14.666666 ],
					"id" : "obj-4",
					"numinlets" : 1,
					"fontname" : "Arial",
					"fontlink" : 1,
					"textovercolor" : [ 0.4, 0.5, 0.65, 1.0 ],
					"underline" : 1,
					"textcolor" : [ 0.361, 0.455, 0.596, 1.0 ],
					"text" : "open jit.split reference",
					"numoutlets" : 3,
					"bgovercolor" : [ 0.0, 0.0, 0.0, 0.0 ],
					"bordercolor" : [ 0.0, 0.0, 0.0, 0.0 ],
					"fontface" : 3,
					"outlettype" : [ "int", "", "int" ],
					"fontsize" : 12.754705,
					"bgoveroncolor" : [ 0.0, 0.0, 0.0, 0.0 ],
					"presentation_rect" : [ 0.0, 0.0, 144.08548, 14.666666 ],
					"spacing_x" : 0.0,
					"bgoncolor" : [ 0.0, 0.0, 0.0, 0.0 ]
				}

			}
, 			{
				"box" : 				{
					"maxclass" : "comment",
					"varname" : "autohelp_see_title",
					"text" : "See Also:",
					"patching_rect" : [ 423.0, 429.0, 100.0, 20.0 ],
					"id" : "obj-6",
					"numinlets" : 1,
					"fontname" : "Arial",
					"numoutlets" : 0,
					"fontface" : 1,
					"fontsize" : 11.595187
				}

			}
, 			{
				"box" : 				{
					"maxclass" : "umenu",
					"varname" : "autohelp_see_menu",
					"types" : [  ],
					"patching_rect" : [ 423.0, 449.0, 130.0, 20.0 ],
					"id" : "obj-7",
					"numinlets" : 1,
					"fontname" : "Arial",
					"numoutlets" : 3,
					"outlettype" : [ "int", "", "" ],
					"fontsize" : 11.595187,
					"items" : [ "(Objects:)", ",", "jit.demultiplex", ",", "jit.concat", ",", "jit.glue", ",", "jit.matrix", ",", "jit.multiplex", ",", "jit.scissors" ]
				}

			}
, 			{
				"box" : 				{
					"maxclass" : "panel",
					"varname" : "autohelp_top_panel",
					"patching_rect" : [ 5.0, 5.0, 495.0, 52.0 ],
					"mode" : 1,
					"id" : "obj-5",
					"numinlets" : 1,
					"numoutlets" : 0,
					"grad1" : [ 0.86, 0.86, 0.75, 1.0 ],
					"background" : 1,
					"grad2" : [ 0.78, 0.84, 0.86, 0.7 ]
				}

			}
, 			{
				"box" : 				{
					"maxclass" : "panel",
					"varname" : "autohelp_see_panel",
					"bgcolor" : [ 0.85, 0.85, 0.85, 0.75 ],
					"patching_rect" : [ 418.0, 425.0, 140.0, 50.0 ],
					"id" : "obj-9",
					"numinlets" : 1,
					"border" : 2,
					"numoutlets" : 0,
					"bordercolor" : [ 0.5, 0.5, 0.5, 0.75 ],
					"background" : 1
				}

			}
 ],
		"lines" : [ 			{
				"patchline" : 				{
					"source" : [ "obj-20", 0 ],
					"destination" : [ "obj-21", 0 ],
					"hidden" : 0
				}

			}
, 			{
				"patchline" : 				{
					"source" : [ "obj-22", 0 ],
					"destination" : [ "obj-23", 0 ],
					"hidden" : 0
				}

			}
, 			{
				"patchline" : 				{
					"source" : [ "obj-31", 0 ],
					"destination" : [ "obj-30", 0 ],
					"hidden" : 0,
					"midpoints" : [ 188.5, 226.0, 117.5, 226.0 ]
				}

			}
, 			{
				"patchline" : 				{
					"source" : [ "obj-30", 0 ],
					"destination" : [ "obj-18", 0 ],
					"hidden" : 0
				}

			}
, 			{
				"patchline" : 				{
					"source" : [ "obj-24", 0 ],
					"destination" : [ "obj-31", 0 ],
					"hidden" : 0,
					"midpoints" : [ 323.641388, 173.0, 188.5, 173.0 ]
				}

			}
, 			{
				"patchline" : 				{
					"source" : [ "obj-23", 0 ],
					"destination" : [ "obj-31", 0 ],
					"hidden" : 0,
					"midpoints" : [ 107.759644, 173.0, 188.5, 173.0 ]
				}

			}
, 			{
				"patchline" : 				{
					"source" : [ "obj-21", 0 ],
					"destination" : [ "obj-31", 0 ],
					"hidden" : 0,
					"midpoints" : [ 40.5, 173.0, 188.5, 173.0 ]
				}

			}
, 			{
				"patchline" : 				{
					"source" : [ "obj-28", 0 ],
					"destination" : [ "obj-31", 0 ],
					"hidden" : 0
				}

			}
, 			{
				"patchline" : 				{
					"source" : [ "obj-25", 0 ],
					"destination" : [ "obj-26", 0 ],
					"hidden" : 0
				}

			}
, 			{
				"patchline" : 				{
					"source" : [ "obj-26", 0 ],
					"destination" : [ "obj-28", 0 ],
					"hidden" : 0
				}

			}
, 			{
				"patchline" : 				{
					"source" : [ "obj-27", 0 ],
					"destination" : [ "obj-28", 0 ],
					"hidden" : 0,
					"midpoints" : [ 255.212082, 142.96875, 188.140106, 142.96875 ]
				}

			}
, 			{
				"patchline" : 				{
					"source" : [ "obj-19", 0 ],
					"destination" : [ "obj-24", 0 ],
					"hidden" : 0
				}

			}
, 			{
				"patchline" : 				{
					"source" : [ "obj-31", 1 ],
					"destination" : [ "obj-29", 0 ],
					"hidden" : 0,
					"midpoints" : [ 200.0, 226.0, 325.5, 226.0 ]
				}

			}
, 			{
				"patchline" : 				{
					"source" : [ "obj-29", 0 ],
					"destination" : [ "obj-17", 0 ],
					"hidden" : 0
				}

			}
 ]
	}

}
